<?xml version="1.0" encoding="UTF-8" standalone="no"?>
<!DOCTYPE svg PUBLIC "-//W3C//DTD SVG 1.1//EN"
 "http://www.w3.org/Graphics/SVG/1.1/DTD/svg11.dtd">
<!-- Generated by graphviz version 2.43.0 (0)
 -->
<!-- Title: type advantages Pages: 1 -->
<svg width="134pt" height="188pt"
 viewBox="0.00 0.00 134.00 188.00" xmlns="http://www.w3.org/2000/svg" xmlns:xlink="http://www.w3.org/1999/xlink">
<g id="graph0" class="graph" transform="scale(1 1) rotate(0) translate(4 184)">
<title>type advantages</title>
<polygon fill="white" stroke="transparent" points="-4,4 -4,-184 130,-184 130,4 -4,4"/>
<!-- 🐲 -->
<g id="node1" class="node">
<title>🐲</title>
<ellipse fill="none" stroke="black" cx="63" cy="-162" rx="27" ry="18"/>
<text text-anchor="middle" x="63" y="-158.3" font-family="Times,serif" font-size="14.00">🐲</text>
</g>
<!-- 🧙 -->
<g id="node2" class="node">
<title>🧙</title>
<ellipse fill="none" stroke="black" cx="27" cy="-90" rx="27" ry="18"/>
<text text-anchor="middle" x="27" y="-86.3" font-family="Times,serif" font-size="14.00">🧙</text>
</g>
<!-- 🐲&#45;&gt;🧙 -->
<g id="edge1" class="edge">
<title>🐲&#45;&gt;🧙</title>
<path fill="none" stroke="black" d="M54.65,-144.76C50.29,-136.28 44.85,-125.71 39.96,-116.2"/>
<polygon fill="black" stroke="black" points="42.99,-114.44 35.3,-107.15 36.77,-117.64 42.99,-114.44"/>
</g>
<!-- 🧟 -->
<g id="node3" class="node">
<title>🧟</title>
<ellipse fill="none" stroke="black" cx="27" cy="-18" rx="27" ry="18"/>
<text text-anchor="middle" x="27" y="-14.3" font-family="Times,serif" font-size="14.00">🧟</text>
</g>
<!-- 🧙&#45;&gt;🧟 -->
<g id="edge2" class="edge">
<title>🧙&#45;&gt;🧟</title>
<path fill="none" stroke="black" d="M27,-71.7C27,-63.98 27,-54.71 27,-46.11"/>
<polygon fill="black" stroke="black" points="30.5,-46.1 27,-36.1 23.5,-46.1 30.5,-46.1"/>
</g>
<!-- 🐺 -->
<g id="node4" class="node">
<title>🐺</title>
<ellipse fill="none" stroke="black" cx="99" cy="-18" rx="27" ry="18"/>
<text text-anchor="middle" x="99" y="-14.3" font-family="Times,serif" font-size="14.00">🐺</text>
</g>
<!-- 🧟&#45;&gt;🐺 -->
<g id="edge3" class="edge">
<title>🧟&#45;&gt;🐺</title>
<path fill="none" stroke="black" d="M54,-18C56.61,-18 59.23,-18 61.84,-18"/>
<polygon fill="black" stroke="black" points="61.93,-21.5 71.93,-18 61.93,-14.5 61.93,-21.5"/>
</g>
<!-- 🥷 -->
<g id="node5" class="node">
<title>🥷</title>
<ellipse fill="none" stroke="black" cx="99" cy="-90" rx="27" ry="18"/>
<text text-anchor="middle" x="99" y="-86.3" font-family="Times,serif" font-size="14.00">🥷</text>
</g>
<!-- 🐺&#45;&gt;🥷 -->
<g id="edge4" class="edge">
<title>🐺&#45;&gt;🥷</title>
<path fill="none" stroke="black" d="M99,-36.1C99,-43.79 99,-53.05 99,-61.67"/>
<polygon fill="black" stroke="black" points="95.5,-61.7 99,-71.7 102.5,-61.7 95.5,-61.7"/>
</g>
<!-- 🥷&#45;&gt;🐲 -->
<g id="edge5" class="edge">
<title>🥷&#45;&gt;🐲</title>
<path fill="none" stroke="black" d="M90.7,-107.15C86.34,-115.61 80.91,-126.18 76.01,-135.7"/>
<polygon fill="black" stroke="black" points="72.81,-134.27 71.35,-144.76 79.04,-137.47 72.81,-134.27"/>
</g>
</g>
</svg>
