<?xml version="1.0" encoding="UTF-8" standalone="no"?>
<svg
   width="512"
   height="512"
   viewBox="0 0 32 32"
   version="1.1"
   id="svg16"
   sodipodi:docname="game-die.svg"
   inkscape:version="1.1.2 (0a00cf5339, 2022-02-04)"
   xmlns:inkscape="http://www.inkscape.org/namespaces/inkscape"
   xmlns:sodipodi="http://sodipodi.sourceforge.net/DTD/sodipodi-0.dtd"
   xmlns="http://www.w3.org/2000/svg"
   xmlns:svg="http://www.w3.org/2000/svg">
  <defs
     id="defs20" />
  <sodipodi:namedview
     id="namedview18"
     pagecolor="#ffffff"
     bordercolor="#666666"
     borderopacity="1.0"
     inkscape:pageshadow="2"
     inkscape:pageopacity="0.0"
     inkscape:pagecheckerboard="0"
     showgrid="false"
     inkscape:zoom="1.015625"
     inkscape:cx="209.23077"
     inkscape:cy="255.01538"
     inkscape:window-width="1366"
     inkscape:window-height="696"
     inkscape:window-x="0"
     inkscape:window-y="40"
     inkscape:window-maximized="1"
     inkscape:current-layer="svg16" />
  <g
     fill="none"
     id="g14">
    <path
       fill="#F3EEF8"
       d="M13.883 2.451L4.494 6.504C3.532 6.934 3 8.024 3 9.127v13.041c0 1.514.546 2.81 1.857 3.39l9.286 4.044a4.528 4.528 0 0 0 3.714 0l9.286-5.047c1.31-.582 1.857-.873 1.857-2.387V9.127c0-1.103-.43-2.192-1.393-2.623l-9.49-4.053a5.194 5.194 0 0 0-4.234 0Z"
       id="path2" />
    <path
       fill="#B4ACBC"
       d="M4.857 25.559C3.547 24.977 3 23.682 3 22.168h26c0 1.514-.546 1.87-1.857 2.452l-9.286 4.981a4.527 4.527 0 0 1-3.714 0L4.857 25.56Z"
       id="path4" />
    <path
       fill="#B4ACBC"
       d="M3 9.234a1.5 1.5 0 0 1 2.117-1.367l9.118 4.119A3 3 0 0 1 16 14.72v13.395a1.5 1.5 0 0 1-2.102 1.374l-9.701-4.254A2 2 0 0 1 3 23.404V9.234Z"
       id="path6" />
    <path
       fill="#E1D8EC"
       d="M29 9.254a1.5 1.5 0 0 0-2.117-1.367l-9.118 4.118A3 3 0 0 0 16 14.74v13.396a1.5 1.5 0 0 0 2.102 1.373l9.701-4.253A2 2 0 0 0 29 23.423V9.253Z"
       id="path8" />
  </g>
</svg>
