<?xml version="1.0" encoding="UTF-8" standalone="no"?>
<svg
   width="344"
   height="344"
   viewBox="0 0 172 172"
   version="1.1"
   id="svg4"
   sodipodi:docname="corners-out-light.svg"
   inkscape:version="1.1.2 (0a00cf5339, 2022-02-04)"
   xmlns:inkscape="http://www.inkscape.org/namespaces/inkscape"
   xmlns:sodipodi="http://sodipodi.sourceforge.net/DTD/sodipodi-0.dtd"
   xmlns="http://www.w3.org/2000/svg"
   xmlns:svg="http://www.w3.org/2000/svg">
  <defs
     id="defs8" />
  <sodipodi:namedview
     id="namedview6"
     pagecolor="#ffffff"
     bordercolor="#666666"
     borderopacity="1.0"
     inkscape:pageshadow="2"
     inkscape:pageopacity="0.0"
     inkscape:pagecheckerboard="true"
     showgrid="false"
     inkscape:zoom="1.015625"
     inkscape:cx="171.81538"
     inkscape:cy="184.12308"
     inkscape:window-width="1366"
     inkscape:window-height="696"
     inkscape:window-x="0"
     inkscape:window-y="40"
     inkscape:window-maximized="1"
     inkscape:current-layer="svg4" />
  <path
     fill="#ffffff"
     d="m 172,6 v 40 a 6,6 0 0 1 -12,0 V 12 h -34 a 6,6 0 0 1 0,-12 h 40 a 6,6 0 0 1 6,6 z M 46,160 H 12 v -34 a 6,6 0 0 0 -12,0 v 40 a 6,6 0 0 0 6,6 h 40 a 6,6 0 0 0 0,-12 z m 120,-40 a 6,6 0 0 0 -6,6 v 34 h -34 a 6,6 0 0 0 0,12 h 40 a 6,6 0 0 0 6,-6 v -40 a 6,6 0 0 0 -6,-6 z M 46,0 H 6 A 6,6 0 0 0 0,6 v 40 a 6,6 0 0 0 12,0 V 12 H 46 A 6,6 0 0 0 46,0 Z"
     id="path2" />
</svg>
