<?xml version="1.0" encoding="UTF-8" standalone="no"?>
<!-- Uploaded to: SVG Repo, www.svgrepo.com, Generator: SVG Repo Mixer Tools -->

<svg
   height="800px"
   width="800px"
   version="1.1"
   id="Layer_1"
   viewBox="0 0 512 512"
   xml:space="preserve"
   sodipodi:docname="HEARTS_P1_1.svg"
   inkscape:version="1.2.2 (b0a8486541, 2022-12-01)"
   xmlns:inkscape="http://www.inkscape.org/namespaces/inkscape"
   xmlns:sodipodi="http://sodipodi.sourceforge.net/DTD/sodipodi-0.dtd"
   xmlns="http://www.w3.org/2000/svg"
   xmlns:svg="http://www.w3.org/2000/svg"><defs
   id="defs27" /><sodipodi:namedview
   id="namedview25"
   pagecolor="#ffffff"
   bordercolor="#000000"
   borderopacity="0.25"
   inkscape:showpageshadow="2"
   inkscape:pageopacity="0.0"
   inkscape:pagecheckerboard="0"
   inkscape:deskcolor="#d1d1d1"
   showgrid="false"
   inkscape:zoom="0.6575"
   inkscape:cx="403.80228"
   inkscape:cy="400"
   inkscape:window-width="1366"
   inkscape:window-height="696"
   inkscape:window-x="0"
   inkscape:window-y="40"
   inkscape:window-maximized="1"
   inkscape:current-layer="Layer_1" />
<path
   style="fill:#000000;fill-opacity:1"
   d="M358.5,34.834c-40.011,0-76.235,16.124-102.5,42.194c-26.264-26.07-62.487-42.194-102.5-42.194  c-80.195,0-145.207,64.743-145.207,144.608c0,110.583,130.261,243.496,247.706,297.724  c117.445-54.228,247.706-187.14,247.706-297.724C503.706,99.577,438.694,34.834,358.5,34.834z"
   id="path2" />

<path
   style="fill:#000000;fill-opacity:1"
   d="M331.849,149.84c-29.609,0-56.414,11.932-75.849,31.223c-19.435-19.291-46.24-31.223-75.849-31.223  c-59.344,0-107.454,47.91-107.454,107.01c0,81.832,96.393,180.187,183.303,220.316c86.91-40.128,183.303-138.483,183.303-220.316  C439.303,197.75,391.195,149.84,331.849,149.84z"
   id="path6" />

<path
   style="fill:#3377ff;fill-opacity:1"
   d="M305.2,264.847c-19.206,0-36.593,7.74-49.2,20.253c-12.606-12.514-29.993-20.253-49.2-20.253  c-38.494,0-69.699,31.077-69.699,69.412c0,53.08,62.526,116.879,118.899,142.908c56.373-26.029,118.899-89.828,118.899-142.908  C374.899,295.924,343.694,264.847,305.2,264.847z"
   id="path10" />

<path
   d="M358.498,26.54c-38.199,0-74.29,13.823-102.498,39.091C227.791,40.363,191.7,26.54,153.502,26.54  C68.86,26.54,0,95.131,0,179.442c0,52.998,29.076,115.314,81.871,175.467c46.711,53.22,107.137,99.578,166.417,127.791  c1.412,0.679,2.824,1.345,4.235,1.996c1.104,0.509,2.29,0.764,3.477,0.764c1.187,0,2.373-0.254,3.477-0.764  c1.411-0.651,2.822-1.317,4.235-1.996c59.28-28.213,119.705-74.571,166.417-127.791C482.924,294.756,512,232.44,512,179.442  C512,95.131,443.14,26.54,358.498,26.54z M256,467.985c-53.032-25.901-110.605-86.031-110.605-133.726  c0-33.701,27.546-61.118,61.406-61.118c16.365,0,31.763,6.338,43.357,17.846c3.235,3.21,8.452,3.21,11.685,0  c11.594-11.508,26.991-17.846,43.356-17.846c33.859,0,61.406,27.417,61.406,61.118C366.605,381.952,309.032,442.083,256,467.985z   M374.009,377.176c-1.101,1.255-2.216,2.505-3.339,3.749c8.196-16.262,12.522-32.132,12.522-46.666  c0-42.848-34.987-77.706-77.993-77.706c-18.131,0-35.329,6.131-49.2,17.408c-13.87-11.277-31.068-17.408-49.2-17.408  c-43.006,0-77.993,34.858-77.993,77.706c0,14.534,4.326,30.403,12.522,46.666c-1.122-1.244-2.236-2.494-3.339-3.749  c-36.757-41.879-57-84.612-57-120.326c0-54.432,44.483-98.716,99.159-98.716c26.424,0,51.285,10.233,70.007,28.816  c3.235,3.21,8.452,3.21,11.685,0c18.722-18.582,43.583-28.816,70.007-28.816c54.677,0,99.159,44.284,99.159,98.716  C431.009,292.564,410.766,335.297,374.009,377.176z M422.609,338.234c16.315-28.429,24.987-56.278,24.987-81.384  c0-63.579-51.924-115.304-115.747-115.304c-28.157,0-54.797,9.962-75.849,28.21c-21.052-18.247-47.692-28.21-75.849-28.21  c-63.823,0-115.747,51.725-115.747,115.304c0,25.106,8.671,52.956,24.987,81.384c-47.002-55.288-72.804-111.458-72.804-158.792  c0-75.164,61.419-136.315,136.914-136.315c36.481,0,70.809,14.129,96.656,39.787c3.235,3.21,8.452,3.21,11.685,0  c25.848-25.658,60.174-39.787,96.655-39.787c75.495,0,136.914,61.15,136.914,136.315  C495.413,226.776,469.611,282.946,422.609,338.234z"
   id="path14" />




</svg>
