<?xml version="1.0" encoding="UTF-8" standalone="no"?>
<svg
   width="64"
   height="64"
   viewBox="0 0 36 36"
   version="1.1"
   id="svg36"
   sodipodi:docname="MONSTER_LORD.svg"
   inkscape:version="1.1.2 (0a00cf5339, 2022-02-04)"
   xmlns:inkscape="http://www.inkscape.org/namespaces/inkscape"
   xmlns:sodipodi="http://sodipodi.sourceforge.net/DTD/sodipodi-0.dtd"
   xmlns="http://www.w3.org/2000/svg"
   xmlns:svg="http://www.w3.org/2000/svg">
  <defs
     id="defs40" />
  <sodipodi:namedview
     id="namedview38"
     pagecolor="#ffffff"
     bordercolor="#666666"
     borderopacity="1.0"
     inkscape:pageshadow="2"
     inkscape:pageopacity="0.0"
     inkscape:pagecheckerboard="0"
     showgrid="false"
     inkscape:zoom="8.09375"
     inkscape:cx="32"
     inkscape:cy="32"
     inkscape:window-width="1366"
     inkscape:window-height="696"
     inkscape:window-x="0"
     inkscape:window-y="40"
     inkscape:window-maximized="1"
     inkscape:current-layer="svg36" />
  <path
     fill="#F4900C"
     d="M14.174 17.075L6.75 7.594l-3.722 9.481z"
     id="path2" />
  <path
     fill="#F4900C"
     d="m17.938 5.534l-6.563 12.389H24.5z"
     id="path4" />
  <path
     fill="#F4900C"
     d="m21.826 17.075l7.424-9.481l3.722 9.481z"
     id="path6" />
  <path
     fill="#FFCC4D"
     d="M28.669 15.19L23.887 3.523l-5.88 11.668l-.007.003l-.007-.004l-5.88-11.668L7.331 15.19C4.197 10.833 1.28 8.042 1.28 8.042S3 20.75 3 33h30c0-12.25 1.72-24.958 1.72-24.958s-2.917 2.791-6.051 7.148z"
     id="path8" />
  <path
     fill="#FFAC33"
     d="M33 34H3a1 1 0 1 1 0-2h30a1 1 0 1 1 0 2zm0-3.486H3a1 1 0 1 1 0-2h30a1 1 0 1 1 0 2z"
     id="path20" />
  <circle
     cx="1.447"
     cy="8.042"
     r="1.407"
     fill="#FFCC4D"
     id="circle22" />
  <circle
     cx="6.75"
     cy="7.594"
     r="1.192"
     fill="#F4900C"
     id="circle24" />
  <circle
     cx="12.113"
     cy="3.523"
     r="1.784"
     fill="#FFCC4D"
     id="circle26" />
  <circle
     cx="34.553"
     cy="8.042"
     r="1.407"
     fill="#FFCC4D"
     id="circle28" />
  <circle
     cx="29.25"
     cy="7.594"
     r="1.192"
     fill="#F4900C"
     id="circle30" />
  <circle
     cx="23.887"
     cy="3.523"
     r="1.784"
     fill="#FFCC4D"
     id="circle32" />
  <circle
     cx="17.938"
     cy="5.534"
     r="1.784"
     fill="#F4900C"
     id="circle34" />
</svg>
