<?xml version="1.0" encoding="UTF-8" standalone="no"?>
<!-- Generator: Adobe Illustrator 16.0.0, SVG Export Plug-In . SVG Version: 6.00 Build 0)  -->

<svg
   version="1.1"
   id="Capa_1"
   x="0px"
   y="0px"
   width="493.356px"
   height="493.356px"
   viewBox="0 0 493.356 493.356"
   style="enable-background:new 0 0 493.356 493.356;"
   xml:space="preserve"
   sodipodi:docname="NET_CHANGE_HELPER.svg"
   inkscape:version="1.3.2 (091e20ef0f, 2023-11-25)"
   xmlns:inkscape="http://www.inkscape.org/namespaces/inkscape"
   xmlns:sodipodi="http://sodipodi.sourceforge.net/DTD/sodipodi-0.dtd"
   xmlns="http://www.w3.org/2000/svg"
   xmlns:svg="http://www.w3.org/2000/svg"><defs
   id="defs16" /><sodipodi:namedview
   id="namedview16"
   pagecolor="#ffffff"
   bordercolor="#000000"
   borderopacity="0.25"
   inkscape:showpageshadow="2"
   inkscape:pageopacity="0.0"
   inkscape:pagecheckerboard="0"
   inkscape:deskcolor="#d1d1d1"
   inkscape:zoom="1.01144"
   inkscape:cx="246.18365"
   inkscape:cy="246.67799"
   inkscape:window-width="1366"
   inkscape:window-height="696"
   inkscape:window-x="0"
   inkscape:window-y="40"
   inkscape:window-maximized="1"
   inkscape:current-layer="Capa_1" />
<g
   id="g1"
   style="fill:#ffffff">
	<path
   d="M490.498,239.278l-109.632-99.929c-3.046-2.474-6.376-2.95-9.993-1.427c-3.613,1.525-5.427,4.283-5.427,8.282v63.954H9.136   c-2.666,0-4.856,0.855-6.567,2.568C0.859,214.438,0,216.628,0,219.292v54.816c0,2.663,0.855,4.853,2.568,6.563   c1.715,1.712,3.905,2.567,6.567,2.567h356.313v63.953c0,3.812,1.817,6.57,5.428,8.278c3.62,1.529,6.95,0.951,9.996-1.708   l109.632-101.077c1.903-1.902,2.852-4.182,2.852-6.849C493.356,243.367,492.401,241.181,490.498,239.278z"
   id="path1"
   style="fill:#ffffff" />
</g>
<g
   id="g2">
</g>
<g
   id="g3">
</g>
<g
   id="g4">
</g>
<g
   id="g5">
</g>
<g
   id="g6">
</g>
<g
   id="g7">
</g>
<g
   id="g8">
</g>
<g
   id="g9">
</g>
<g
   id="g10">
</g>
<g
   id="g11">
</g>
<g
   id="g12">
</g>
<g
   id="g13">
</g>
<g
   id="g14">
</g>
<g
   id="g15">
</g>
<g
   id="g16">
</g>
</svg>
