<?xml version="1.0" encoding="UTF-8" standalone="no"?>
<svg
   width="98.626289"
   height="98.628571"
   viewBox="0 0 43.149002 43.15"
   version="1.1"
   id="svg4"
   sodipodi:docname="square.svg"
   inkscape:version="1.1.2 (0a00cf5339, 2022-02-04)"
   xmlns:inkscape="http://www.inkscape.org/namespaces/inkscape"
   xmlns:sodipodi="http://sodipodi.sourceforge.net/DTD/sodipodi-0.dtd"
   xmlns="http://www.w3.org/2000/svg"
   xmlns:svg="http://www.w3.org/2000/svg">
  <defs
     id="defs8" />
  <sodipodi:namedview
     id="namedview6"
     pagecolor="#ffffff"
     bordercolor="#666666"
     borderopacity="1.0"
     inkscape:pageshadow="2"
     inkscape:pageopacity="0.0"
     inkscape:pagecheckerboard="0"
     showgrid="false"
     inkscape:zoom="4.046875"
     inkscape:cx="49.420849"
     inkscape:cy="49.420849"
     inkscape:window-width="1366"
     inkscape:window-height="696"
     inkscape:window-x="0"
     inkscape:window-y="40"
     inkscape:window-maximized="1"
     inkscape:current-layer="svg4" />
  <path
     fill="#3b82f6"
     d="m 7.36,43.149 h 28.453 c 4.899,0 7.336,-2.437 7.336,-7.265 V 7.265 C 43.149,2.437 40.712,0 35.813,0 H 7.36 C 2.485,0 0,2.414 0,7.265 v 28.62 c 0,4.851 2.485,7.265 7.36,7.265 m 0.07,-3.773 c -2.343,0 -3.656,-1.242 -3.656,-3.68 V 7.455 c 0,-2.438 1.313,-3.68 3.656,-3.68 h 28.313 c 2.32,0 3.633,1.242 3.633,3.68 v 28.24 c 0,2.438 -1.313,3.68 -3.633,3.68 z"
     id="path2" />
</svg>
