<?xml version="1.0" encoding="UTF-8" standalone="no"?>
<!-- Generator: Adobe Illustrator 18.0.0, SVG Export Plug-In . SVG Version: 6.00 Build 0)  -->

<svg
   version="1.1"
   id="Capa_1"
   x="0px"
   y="0px"
   viewBox="0 0 482.097 482.097"
   style="enable-background:new 0 0 482.097 482.097;"
   xml:space="preserve"
   sodipodi:docname="ROTATION_HELP.svg"
   inkscape:version="1.3.2 (091e20ef0f, 2023-11-25)"
   xmlns:inkscape="http://www.inkscape.org/namespaces/inkscape"
   xmlns:sodipodi="http://sodipodi.sourceforge.net/DTD/sodipodi-0.dtd"
   xmlns="http://www.w3.org/2000/svg"
   xmlns:svg="http://www.w3.org/2000/svg"><defs
   id="defs15" /><sodipodi:namedview
   id="namedview15"
   pagecolor="#ffffff"
   bordercolor="#000000"
   borderopacity="0.25"
   inkscape:showpageshadow="2"
   inkscape:pageopacity="0.0"
   inkscape:pagecheckerboard="0"
   inkscape:deskcolor="#d1d1d1"
   inkscape:zoom="1.0350614"
   inkscape:cx="240.56543"
   inkscape:cy="241.04849"
   inkscape:window-width="1366"
   inkscape:window-height="696"
   inkscape:window-x="0"
   inkscape:window-y="40"
   inkscape:window-maximized="1"
   inkscape:current-layer="Capa_1" />
<path
   d="M481.803,313.519l-39.382-134.041c-0.839-2.773-3.257-4.805-6.145-5.111c-2.903-0.322-5.693,1.129-7.08,3.66l-22.305,40.436  c-96.09-78.836-235.602-78.854-331.691-0.018l-22.291-40.418c-1.4-2.531-4.193-3.982-7.094-3.66  c-2.889,0.307-5.289,2.338-6.127,5.111L0.301,313.519c-0.762,2.533-0.051,5.275,1.824,7.113c1.852,1.889,4.578,2.582,7.125,1.855  l134.008-39.402c2.811-0.822,4.822-3.256,5.131-6.145c0.338-2.887-1.129-5.691-3.676-7.078l-32.033-17.662  c75.594-57.576,181.117-57.576,256.713,0l-32.016,17.662c-2.529,1.387-4,4.191-3.676,7.078c0.309,2.889,2.32,5.322,5.127,6.145  l134.011,39.402c2.548,0.727,5.288,0.033,7.126-1.855C481.854,318.794,482.549,316.052,481.803,313.519z"
   id="path1"
   style="fill:#ffffff" />
<g
   id="g1">
</g>
<g
   id="g2">
</g>
<g
   id="g3">
</g>
<g
   id="g4">
</g>
<g
   id="g5">
</g>
<g
   id="g6">
</g>
<g
   id="g7">
</g>
<g
   id="g8">
</g>
<g
   id="g9">
</g>
<g
   id="g10">
</g>
<g
   id="g11">
</g>
<g
   id="g12">
</g>
<g
   id="g13">
</g>
<g
   id="g14">
</g>
<g
   id="g15">
</g>
</svg>
