<?xml version="1.0" encoding="UTF-8" standalone="no"?>
<svg
   width="512"
   height="512"
   viewBox="0 0 36 36"
   version="1.1"
   id="svg6"
   sodipodi:docname="SUMMON_ITEM_P2.svg"
   inkscape:version="1.1.2 (0a00cf5339, 2022-02-04)"
   xmlns:inkscape="http://www.inkscape.org/namespaces/inkscape"
   xmlns:sodipodi="http://sodipodi.sourceforge.net/DTD/sodipodi-0.dtd"
   xmlns="http://www.w3.org/2000/svg"
   xmlns:svg="http://www.w3.org/2000/svg">
  <defs
     id="defs10" />
  <sodipodi:namedview
     id="namedview8"
     pagecolor="#ffffff"
     bordercolor="#666666"
     borderopacity="1.0"
     inkscape:pageshadow="2"
     inkscape:pageopacity="0.0"
     inkscape:pagecheckerboard="0"
     showgrid="false"
     inkscape:zoom="0.5078125"
     inkscape:cx="184.12308"
     inkscape:cy="267.81538"
     inkscape:window-width="1024"
     inkscape:window-height="514"
     inkscape:window-x="69"
     inkscape:window-y="123"
     inkscape:window-maximized="0"
     inkscape:current-layer="svg6" />
  <path
     fill="#CCD6DD"
     d="M17 27a3 3 0 0 1-3-3v-4a3 3 0 0 1 3-3c.603-.006 6-1 6-5c0-2-2-4-5-4c-2.441 0-4 2-4 3a3 3 0 1 1-6 0c0-4.878 4.58-9 10-9c8 0 11 5.982 11 11c0 4.145-2.277 7.313-6.413 8.92c-.9.351-1.79.587-2.587.747V24a3 3 0 0 1-3 3z"
     id="path2"
     style="fill:#7c1614;fill-opacity:1" />
  <circle
     cx="17"
     cy="32"
     r="3"
     fill="#CCD6DD"
     id="circle4"
     style="fill:#7c1614;fill-opacity:1" />
</svg>
