<?xml version="1.0" encoding="UTF-8" standalone="no"?>
<svg
   version="1.1"
   width="1024"
   height="1024"
   id="svg184"
   sodipodi:docname="SUMMON_ITEM.svg"
   inkscape:version="1.4.2 (ebf0e940d0, 2025-05-08)"
   xmlns:inkscape="http://www.inkscape.org/namespaces/inkscape"
   xmlns:sodipodi="http://sodipodi.sourceforge.net/DTD/sodipodi-0.dtd"
   xmlns="http://www.w3.org/2000/svg"
   xmlns:svg="http://www.w3.org/2000/svg">
  <defs
     id="defs184" />
  <sodipodi:namedview
     id="namedview184"
     pagecolor="#ffffff"
     bordercolor="#000000"
     borderopacity="0.25"
     inkscape:showpageshadow="2"
     inkscape:pageopacity="0.0"
     inkscape:pagecheckerboard="0"
     inkscape:deskcolor="#d1d1d1"
     inkscape:zoom="0.48242188"
     inkscape:cx="519.25506"
     inkscape:cy="601.1336"
     inkscape:window-width="1366"
     inkscape:window-height="696"
     inkscape:window-x="0"
     inkscape:window-y="40"
     inkscape:window-maximized="1"
     inkscape:current-layer="svg184" />
  <path
     d="M0 0 C2.13839645 0.10275171 4.27982356 0.14583796 6.4206543 0.15771484 C7.39225494 0.16533592 7.39225494 0.16533592 8.38348389 0.17311096 C9.79119709 0.18380861 11.19892723 0.19243117 12.60666466 0.19923019 C14.85031647 0.21107528 17.09378059 0.23055078 19.33735657 0.25234985 C25.71743287 0.3137156 32.09749656 0.36760129 38.4777832 0.40136719 C42.38477107 0.42259533 46.29142642 0.45813105 50.19822121 0.50212479 C51.6726057 0.51608443 53.14704914 0.52496073 54.6214962 0.52817917 C82.77009548 0.59601888 106.36709828 9.99656847 127 29 C128.20076172 30.09441406 128.20076172 30.09441406 129.42578125 31.2109375 C139.69721582 41.02626929 148.03036509 52.66784599 155 65 C155.37979004 65.66 155.75958008 66.32 156.15087891 67 C180.93581468 110.4410151 190.53256889 161.59572312 195.74462891 210.76513672 C195.86117325 211.85553253 195.86117325 211.85553253 195.98007202 212.96795654 C196.19005798 214.94715108 196.39452872 216.92692854 196.59863281 218.90673828 C196.90342264 222.02947705 196.90342264 222.02947705 198 225 C198.14907908 226.69464453 198.24798668 228.39393724 198.31640625 230.09375 C198.35838135 231.11605713 198.40035645 232.13836426 198.44360352 233.19165039 C198.50245728 234.82928345 198.50245728 234.82928345 198.5625 236.5 C198.6049585 237.61173584 198.64741699 238.72347168 198.69116211 239.86889648 C199.03695475 249.58239948 199.10424679 259.28188254 199 269 C199.66 269.33 200.32 269.66 201 270 C200.67 270.33 200.34 270.66 200 271 C200.33 271.66 200.66 272.32 201 273 C201.08949417 274.45037107 201.1175844 275.90478629 201.11352539 277.35791016 C201.11344986 278.25869293 201.11337433 279.15947571 201.11329651 280.08755493 C201.10555458 281.54855118 201.10555458 281.54855118 201.09765625 283.0390625 C201.0962413 284.03505463 201.09482635 285.03104675 201.09336853 286.05722046 C201.08775936 289.24651053 201.0752053 292.43573106 201.0625 295.625 C201.05748618 297.78385315 201.05292307 299.94270741 201.04882812 302.1015625 C201.03778695 307.4010655 201.02103988 312.70052778 201 318 C200.34 318 199.68 318 199 318 C198.99613281 318.90878906 198.99613281 318.90878906 198.9921875 319.8359375 C198.56998837 328.98358535 194.84970536 335.59657847 188.25 341.875 C181.48856146 347.34608768 174.42774273 349.00022573 166 350 C165.88893921 351.47243164 165.88893921 351.47243164 165.77563477 352.97460938 C163.989866 376.43078629 161.94445022 399.8581365 159.73046875 423.27734375 C159.57930949 424.87804403 159.57930949 424.87804403 159.42509651 426.5110817 C158.39397729 437.42512452 157.35678527 448.33855949 156.30659962 459.25078487 C155.90588686 463.42306256 155.50882097 467.59568263 155.11243629 471.76837349 C154.9250214 473.73125413 154.735882 475.69397099 154.54489708 477.65650749 C154.27987573 480.38055853 154.02068381 483.10510916 153.76269531 485.82983398 C153.68481561 486.61466408 153.6069359 487.39949417 153.52669621 488.20810699 C153.00412946 493.81635781 152.91905167 499.36934339 153 505 C152.34 505 151.68 505 151 505 C151.02650635 506.19580185 151.0530127 507.3916037 151.08032227 508.62364197 C151.07534142 515.12901453 150.36994503 521.55515467 149.71484375 528.02172852 C149.57652561 529.41888652 149.43860745 530.81608418 149.30105591 532.21331787 C149.00564251 535.20582367 148.7075189 538.19804222 148.40725708 541.19006538 C147.93202902 545.92661222 147.46346715 550.6638044 146.99584961 555.40110779 C146.08681597 564.60140373 145.17153196 573.80107208 144.25517273 583.00064087 C143.08847689 594.71392383 141.92323035 606.42734443 140.76646137 618.14161247 C140.30171257 622.84555384 139.83311702 627.54909096 139.36149597 632.25234807 C139.0684232 635.18278251 138.77859764 638.11353171 138.48962021 641.04437256 C138.29188851 643.03972926 138.09024222 645.03469684 137.88845825 647.02964783 C137.1645967 654.404186 137.1645967 654.404186 136.98217773 661.80577087 C136.98805908 662.85986649 136.99394043 663.9139621 137 665 C136.67 665.33 136.34 665.66 136 666 C135.78643282 667.73814077 135.57876615 669.47725145 135.40405273 671.21972656 C134.7081014 678.14628617 133.57192839 684.27803064 130.90234375 690.765625 C129.95173246 692.94969922 129.95173246 692.94969922 129.5078125 695.15234375 C128.64841159 698.27924091 126.35697177 699.84362157 124 702 C123.41992188 702.56074219 122.83984375 703.12148438 122.2421875 703.69921875 C112.94777225 712.37275201 103.93319364 715.09812319 91.5625 715.5625 C89.88897461 715.62727539 89.88897461 715.62727539 88.18164062 715.69335938 C72.04309533 716.21556192 55.88887604 716.04764799 39.74438477 715.96313477 C38.59865494 715.95886978 37.45292511 715.9546048 36.2724762 715.95021057 C34.09182171 715.94189946 31.91117811 715.92940834 29.73057556 715.91221619 C28.75600906 715.90895828 27.78144257 715.90570038 26.77734375 715.90234375 C25.92390381 715.89710693 25.07046387 715.89187012 24.19116211 715.88647461 C21.82057752 715.91163072 21.82057752 715.91163072 19 717 C17.948125 716.835 16.89625 716.67 15.8125 716.5 C10.763473 715.74641388 5.78028004 716.241902 0.72387695 716.68164062 C-3.11204741 716.98996332 -6.26052222 716.79148456 -10 716 C-12.86483903 715.90346429 -15.69850544 715.85885738 -18.5625 715.875 C-19.38733887 715.8762085 -20.21217773 715.87741699 -21.06201172 715.87866211 C-28.07550045 715.92162882 -35.06449376 716.24527124 -42.06079102 716.73193359 C-45.789778 716.96482603 -49.30109767 717.03461734 -53.0078125 716.53515625 C-59.61442243 715.68392274 -66.28128174 715.85126045 -72.93066406 715.86962891 C-75.2585288 715.87501975 -77.58620338 715.86964152 -79.9140625 715.86328125 C-81.40625042 715.86394156 -82.89843823 715.86522175 -84.390625 715.8671875 C-85.08029358 715.86516327 -85.76996216 715.86313904 -86.48052979 715.86105347 C-89.31720092 715.87478283 -91.94388793 715.98824883 -94.72558594 716.57080078 C-97 717 -97 717 -98.84078503 716.53476143 C-101.2448947 715.93934822 -103.34588737 715.87412816 -105.82185364 715.87301636 C-106.79013092 715.87019653 -107.7584082 715.86737671 -108.75602722 715.86447144 C-109.81211685 715.86649567 -110.86820648 715.8685199 -111.95629883 715.87060547 C-113.0739563 715.86885315 -114.19161377 715.86710083 -115.34313965 715.86529541 C-119.04778588 715.86088582 -122.75238451 715.86381397 -126.45703125 715.8671875 C-129.03854888 715.86651368 -131.62006645 715.86554301 -134.20158386 715.86428833 C-139.62292134 715.86281214 -145.044241 715.86486576 -150.46557617 715.86962891 C-156.69674084 715.87504104 -162.92787262 715.87333058 -169.15903646 715.8678025 C-175.18179571 715.86267651 -181.20453916 715.8632726 -187.22730064 715.86618423 C-189.77432955 715.86684715 -192.32135931 715.86604752 -194.86838722 715.86370468 C-212.4405588 715.82084416 -212.4405588 715.82084416 -229.97920227 716.77294922 C-235.77021141 717.20821608 -241.57077185 717.14601893 -247.375 717.125 C-248.05570557 717.12411377 -248.73641113 717.12322754 -249.43774414 717.12231445 C-257.42276962 717.11048479 -265.4013273 717.01479472 -273.3828125 716.7734375 C-274.46769455 716.74080811 -274.46769455 716.74080811 -275.57449341 716.70751953 C-276.31738617 716.68512207 -277.06027893 716.66272461 -277.82568359 716.63964844 C-300.22245407 715.96656832 -322.6123015 715.8853487 -345.01748657 715.87661743 C-347.73456184 715.87500914 -350.4516285 715.87145493 -353.16870117 715.86743164 C-357.51452481 715.86151642 -361.86031337 715.86139554 -366.20613861 715.86568069 C-367.82349377 715.86666906 -369.44085078 715.86610944 -371.05820465 715.86384201 C-379.38244647 715.85427071 -387.61238815 716.05111211 -395.91213989 716.77316284 C-401.26304304 717.16624531 -406.60976492 717.14255955 -411.97265625 717.1328125 C-413.17522568 717.13376923 -414.3777951 717.13472595 -415.61680603 717.13571167 C-418.15217135 717.13638791 -420.68753846 717.13457273 -423.22290039 717.13037109 C-427.00085606 717.12508623 -430.77868894 717.13029828 -434.55664062 717.13671875 C-448.46026859 717.13921298 -462.32565386 716.91139918 -476.21559143 716.26150513 C-477.31161179 716.21371918 -478.40763214 716.16593323 -479.53686523 716.11669922 C-480.49842026 716.07036346 -481.45997528 716.02402771 -482.45066833 715.97628784 C-484.85020439 715.9986067 -486.70138937 716.3775251 -489 717 C-491.54673158 717.00431619 -494.05590034 716.95242933 -496.59765625 716.84375 C-498.12881546 716.78944754 -499.65998449 716.73542145 -501.19116211 716.68164062 C-501.9879538 716.65175049 -502.78474548 716.62186035 -503.60568237 716.59106445 C-521.12533071 715.93564028 -521.12533071 715.93564028 -538.63110352 716.68164062 C-541.30067636 716.89911043 -543.67179772 717.06889864 -546.30618286 716.51586914 C-549.42228977 715.91913101 -552.30684623 715.88768893 -555.47998047 715.90234375 C-556.77257782 715.90564697 -558.06517517 715.9089502 -559.39694214 715.91235352 C-560.08378963 715.91647247 -560.77063713 715.92059143 -561.47829819 715.92483521 C-563.65034722 715.93769635 -565.82233443 715.94414102 -567.99441528 715.94897461 C-573.39724906 715.96229201 -578.80002509 715.98629367 -584.20281982 716.01037598 C-588.76032327 716.03032444 -593.31780317 716.04588305 -597.87533951 716.05593872 C-599.98813389 716.06229963 -602.10082918 716.07481298 -604.21359253 716.08764648 C-637.64009723 716.22001408 -637.64009723 716.22001408 -650.80859375 703.453125 C-661.94564721 690.98597781 -662.70331013 676.33764184 -664.0625 660.4375 C-664.37596007 656.78930456 -664.70192461 653.14252947 -665.03515625 649.49609375 C-665.10291763 648.65767441 -665.17067902 647.81925507 -665.24049377 646.95542908 C-665.42267191 644.96251704 -665.70173746 642.97887006 -666 641 C-666.66 640.67 -667.32 640.34 -668 640 C-667.67 639.34 -667.34 638.68 -667 638 C-666.57860515 631.82791593 -667.19311016 625.62554927 -667.77514648 619.48339844 C-667.858404 618.56944148 -667.94166151 617.65548452 -668.02744198 616.7138319 C-668.30485959 613.67865083 -668.58801859 610.64403321 -668.87109375 607.609375 C-669.07124139 605.43009456 -669.27098927 603.25077737 -669.47036743 601.07142639 C-669.8982339 596.40227415 -670.32851543 591.7333535 -670.76077271 587.06460571 C-671.79079072 575.93920738 -672.8101457 564.81283014 -673.82990074 553.6864872 C-674.06399092 551.13308547 -674.29824637 548.57969888 -674.53266335 546.02632713 C-676.26671562 527.13639149 -677.96497979 508.24354989 -679.6328125 489.34765625 C-679.84168689 486.98426192 -680.05057449 484.62086876 -680.25947571 482.25747681 C-681.15543152 472.11537254 -682.04891819 461.97306283 -682.93573761 451.83015537 C-683.29810463 447.69397073 -683.66334777 443.55804366 -684.02933884 439.42217827 C-684.19821526 437.50601219 -684.36577601 435.58972965 -684.53194046 433.67332649 C-684.75767451 431.07073445 -684.98779295 428.46856626 -685.21899414 425.86645508 C-685.28386741 425.10538326 -685.34874067 424.34431145 -685.4155798 423.56017685 C-685.6886652 420.53082135 -686.03387605 417.89837186 -687 415 C-687.1845112 412.25080152 -687.32435912 409.51397963 -687.43359375 406.76171875 C-687.95805252 395.41141709 -688.99827867 384.12277148 -690.0625 372.8125 C-690.25099413 370.77932865 -690.43914689 368.74612563 -690.62695312 366.71289062 C-691.08071918 361.80822134 -691.53903892 356.90399808 -692 352 C-692.99 351.67 -693.98 351.34 -695 351 C-695.33 350.67 -695.66 350.34 -696 350 C-697.32883813 349.7271136 -698.66342482 349.4820443 -700 349.25 C-709.2393407 347.24081004 -717.04877219 342.03796999 -722.25 334.08984375 C-726.59009133 326.06386604 -727.30827381 317.62562347 -727.30078125 308.65234375 C-727.30638062 307.66396011 -727.31197998 306.67557648 -727.31774902 305.65724182 C-727.32970911 302.41717515 -727.32332514 299.17756694 -727.3125 295.9375 C-727.31067719 294.81553223 -727.30885437 293.69356445 -727.30697632 292.53759766 C-727.11122267 220.33702038 -721.99402439 138.98115182 -687 74 C-686.34 73.67 -685.68 73.34 -685 73 C-684.31854075 71.33932679 -683.65573642 69.6709973 -683 68 C-678.05944191 59.03114455 -672.61943589 50.82754586 -666 43 C-665.19820312 41.99195313 -664.39640625 40.98390625 -663.5703125 39.9453125 C-662.76335937 38.93210938 -661.95640625 37.91890625 -661.125 36.875 C-660.38507813 35.94429687 -659.64515625 35.01359375 -658.8828125 34.0546875 C-658.26148438 33.37664062 -657.64015625 32.69859375 -657 32 C-656.34 32 -655.68 32 -655 32 C-655 31.34 -655 30.68 -655 30 C-640.37010448 16.13238361 -618.00312297 1.09767255 -597.02140522 0.79566956 C-595.783566 0.7759289 -594.54572678 0.75618824 -593.27037728 0.73584938 C-591.88836891 0.71893557 -590.50635763 0.70225852 -589.12434387 0.68579102 C-587.6494015 0.66515869 -586.1744625 0.64428425 -584.69952667 0.62318993 C-580.600865 0.56660405 -576.50214436 0.51775535 -572.40335642 0.47130275 C-569.7490636 0.44109271 -567.09479089 0.40942749 -564.44051707 0.3775959 C-515.00449219 -0.205509 -465.56551037 -0.11422542 -416.12692211 -0.0734705 C-401.30421288 -0.06129275 -386.48150453 -0.05627672 -371.65879116 -0.05223143 C-364.36076036 -0.05023056 -357.06272966 -0.04790262 -349.76469898 -0.04548645 C-348.67112622 -0.04512493 -348.67112622 -0.04512493 -347.55546108 -0.04475611 C-330.39610368 -0.03900718 -313.23674823 -0.03004432 -296.07739258 -0.02050781 C-294.95778184 -0.01988734 -294.95778184 -0.01988734 -293.8155527 -0.01925434 C-283.96472162 -0.01379195 -274.11389061 -0.00821324 -264.26305962 -0.00260353 C-250.47005089 0.00524884 -236.67704211 0.01298208 -222.8840332 0.02050781 C-222.12638028 0.0209224 -221.36872736 0.02133699 -220.58811526 0.02176414 C-203.2928205 0.03121095 -185.99752592 0.03975282 -168.7022295 0.04548645 C-167.97645114 0.04572744 -167.25067279 0.04596844 -166.50290115 0.04621673 C-159.26130599 0.048601 -152.0197108 0.05082927 -144.77811553 0.05282298 C-129.2645523 0.0571294 -113.7509973 0.06418061 -98.23743852 0.07687083 C-86.99029078 0.0860315 -75.7431457 0.09173409 -64.49599405 0.09398818 C-58.40900411 0.09533684 -52.32202654 0.09836997 -46.23504066 0.10574722 C-40.67260333 0.11246443 -35.11018395 0.11463903 -29.54774294 0.11311162 C-27.53058974 0.11338434 -25.51343594 0.11537452 -23.49628635 0.1192044 C-20.76712774 0.12414877 -18.03803899 0.12299777 -15.3088789 0.12025452 C-14.5163027 0.12316738 -13.7237265 0.12608024 -12.90713283 0.12908137 C-8.88846299 0.14535589 -8.88846299 0.14535589 -4.95588844 -0.57019049 C-3 -1 -3 -1 0 0 Z "
     fill="#FEC14F"
     transform="translate(775,167)"
     id="path1" />
  <path
     d="M0 0 C84.48 0 168.96 0 256 0 C254.54716565 4.35850305 253.14966845 7.87061065 251.0625 11.875 C242.48557304 28.79930112 241.84280305 45.1350089 241.8671875 63.7890625 C241.86651225 65.61974093 241.8655404 67.45041928 241.86428833 69.28109741 C241.86281951 73.10879372 241.86493809 76.93646659 241.86962891 80.76416016 C241.87530133 85.62522583 241.87205778 90.48623597 241.86605644 95.34729958 C241.86240787 99.1275574 241.86360935 102.90780251 241.86618423 106.68806076 C241.86684295 108.47787864 241.86606281 110.26769774 241.86370468 112.05751419 C241.83391966 141.03251457 242.91957393 170.12392219 264.1015625 192.35546875 C276.15715811 203.35498119 290.28929084 209.1133157 306.67919922 209.17700195 C307.42490677 209.18357315 308.17061432 209.19014435 308.93891907 209.19691467 C311.39417652 209.21653591 313.84937287 209.22829042 316.3046875 209.23828125 C317.15078709 209.24235678 317.99688667 209.2464323 318.86862564 209.25063133 C323.35447185 209.27145298 327.84028789 209.28576683 332.32617188 209.29516602 C336.91627238 209.306172 341.5058803 209.34051522 346.09580803 209.38033772 C349.66161884 209.4067342 353.22731684 209.41487843 356.79321671 209.41844749 C358.4825889 209.42326085 360.17195792 209.43472076 361.86123276 209.45348549 C382.17872496 209.66499839 400.75911294 205.38987306 416 191 C435.98928293 170.17631869 437.32247876 142.32170326 437.30078125 115.12109375 C437.30468154 113.05379655 437.30901887 110.98650014 437.31376648 108.91920471 C437.32117001 104.61546208 437.32097945 100.31180159 437.31567383 96.00805664 C437.30987191 90.53613359 437.32685668 85.06454823 437.3500185 79.59268093 C437.36485587 75.33289172 437.36561428 71.07318214 437.36250877 66.81337166 C437.36301647 64.79746899 437.36814838 62.7815612 437.37832069 60.76568413 C437.44434448 45.86292996 436.66198618 31.66200822 431.125 17.625 C430.41730469 15.78808594 430.41730469 15.78808594 429.6953125 13.9140625 C427.64960415 9.19102157 425.30182703 4.60365405 423 0 C507.48 0 591.96 0 679 0 C678.41372589 10.55293406 677.82098395 21.06384623 676.94921875 31.58984375 C676.80127617 33.40635689 676.80127617 33.40635689 676.65034485 35.25956726 C676.33217549 39.15244552 676.01012707 43.04498883 675.6875 46.9375 C675.57519359 48.30075406 675.46297112 49.66401504 675.35083008 51.02728271 C673.85959452 69.14220855 672.28034903 87.24660193 670.54910278 105.34031677 C669.27952147 118.67372304 668.14283542 132.01652287 667.03079033 145.36387634 C664.45955414 176.16198617 661.65945556 206.93688008 658.79064941 237.7086792 C658.19787512 244.07255076 657.60786764 250.43667882 657.01757812 256.80078125 C655.78482225 270.0863566 654.54865628 283.37161293 653.31134796 296.65676498 C652.53878807 304.95246497 651.76678181 313.24821648 650.9948597 321.54397583 C650.74844276 324.19160102 650.50185493 326.83921024 650.25523376 329.48681641 C649.15315788 341.32301354 648.06486444 353.16038874 647 365 C641.88160694 366.69066092 637.7018014 367.1993424 632.25 367.0625 C627.02851591 366.8869217 627.02851591 366.8869217 622 368 C620.948125 367.835 619.89625 367.67 618.8125 367.5 C613.763473 366.74641388 608.78028004 367.241902 603.72387695 367.68164062 C599.88795259 367.98996332 596.73947778 367.79148456 593 367 C590.13516097 366.90346429 587.30149456 366.85885738 584.4375 366.875 C583.2002417 366.87681274 583.2002417 366.87681274 581.93798828 366.87866211 C574.92449955 366.92162882 567.93550624 367.24527124 560.93920898 367.73193359 C557.210222 367.96482603 553.69890233 368.03461734 549.9921875 367.53515625 C543.38557757 366.68392274 536.71871826 366.85126045 530.06933594 366.86962891 C527.7414712 366.87501975 525.41379662 366.86964152 523.0859375 366.86328125 C521.59374958 366.86394156 520.10156177 366.86522175 518.609375 366.8671875 C517.91970642 366.86516327 517.23003784 366.86313904 516.51947021 366.86105347 C513.68279908 366.87478283 511.05611207 366.98824883 508.27441406 367.57080078 C506 368 506 368 504.15921497 367.53476143 C501.7551053 366.93934822 499.65411263 366.87412816 497.17814636 366.87301636 C496.20986908 366.87019653 495.2415918 366.86737671 494.24397278 366.86447144 C493.18788315 366.86649567 492.13179352 366.8685199 491.04370117 366.87060547 C489.36721497 366.86797699 489.36721497 366.86797699 487.65686035 366.86529541 C483.95221412 366.86088582 480.24761549 366.86381397 476.54296875 366.8671875 C473.96145112 366.86651368 471.37993355 366.86554301 468.79841614 366.86428833 C463.37707866 366.86281214 457.955759 366.86486576 452.53442383 366.86962891 C446.30325916 366.87504104 440.07212738 366.87333058 433.84096354 366.8678025 C427.81820429 366.86267651 421.79546084 366.8632726 415.77269936 366.86618423 C413.22567045 366.86684715 410.67864069 366.86604752 408.13161278 366.86370468 C390.5594412 366.82084416 390.5594412 366.82084416 373.02079773 367.77294922 C367.22978859 368.20821608 361.42922815 368.14601893 355.625 368.125 C354.94429443 368.12411377 354.26358887 368.12322754 353.56225586 368.12231445 C345.57723038 368.11048479 337.5986727 368.01479472 329.6171875 367.7734375 C328.8939328 367.75168457 328.1706781 367.72993164 327.42550659 367.70751953 C326.31116745 367.67392334 326.31116745 367.67392334 325.17431641 367.63964844 C302.77754593 366.96656832 280.3876985 366.8853487 257.98251343 366.87661743 C255.26543816 366.87500914 252.5483715 366.87145493 249.83129883 366.86743164 C245.48547519 366.86151642 241.13968663 366.86139554 236.79386139 366.86568069 C235.17650623 366.86666906 233.55914922 366.86610944 231.94179535 366.86384201 C223.61755353 366.85427071 215.38761185 367.05111211 207.08786011 367.77316284 C201.73695696 368.16624531 196.39023508 368.14255955 191.02734375 368.1328125 C189.82477432 368.13376923 188.6222049 368.13472595 187.38319397 368.13571167 C184.84782865 368.13638791 182.31246154 368.13457273 179.77709961 368.13037109 C175.99914394 368.12508623 172.22131106 368.13029828 168.44335938 368.13671875 C154.53973141 368.13921298 140.67434614 367.91139918 126.78440857 367.26150513 C125.68838821 367.21371918 124.59236786 367.16593323 123.46313477 367.11669922 C122.50157974 367.07036346 121.54002472 367.02402771 120.54933167 366.97628784 C118.14979561 366.9986067 116.29861063 367.3775251 114 368 C111.45326842 368.00431619 108.94409966 367.95242933 106.40234375 367.84375 C104.87118454 367.78944754 103.34001551 367.73542145 101.80883789 367.68164062 C101.0120462 367.65175049 100.21525452 367.62186035 99.39431763 367.59106445 C81.87466929 366.93564028 81.87466929 366.93564028 64.36889648 367.68164062 C60.64518759 367.98498288 57.63733638 367.74499661 54 367 C50.9781573 366.8970286 47.96025732 366.9512065 44.9375 367 C43.34251766 367.02562221 41.74745279 367.0466151 40.15234375 367.0625 C39.45101318 367.07410156 38.74968262 367.08570313 38.02709961 367.09765625 C35.89917377 366.99514266 34.05460959 366.54169703 32 366 C28.2302937 328.26160255 24.77529261 290.50129781 21.48571777 252.71820068 C19.32537 227.90779499 17.10874724 203.10484703 14.75 178.3125 C12.92295676 159.10741285 11.19909343 139.89911023 9.63464355 120.6708374 C8.52838877 107.08178133 7.3183356 93.50760201 6 79.9375 C4.60565764 65.54736211 3.26946559 51.1531871 2.02148438 36.74954224 C1.8429629 34.69491984 1.66267516 32.64045001 1.48046875 30.58615112 C1.22654204 27.71671419 0.97954593 24.84675923 0.734375 21.9765625 C0.65958923 21.14388351 0.58480347 20.31120453 0.50775146 19.45329285 C-0.03953287 12.90049196 0 6.64517082 0 0 Z "
     fill="#C67A44"
     transform="translate(172,516)"
     id="path2" />
  <path
     d="M0 0 C-1.485 0.495 -1.485 0.495 -3 1 C-2.35675781 1.30550781 -1.71351563 1.61101562 -1.05078125 1.92578125 C7.3627462 6.18655478 14.07454244 11.69918228 21 18 C21.73089844 18.65871094 22.46179688 19.31742188 23.21484375 19.99609375 C79.26572725 73.29601364 92.60770051 162.13414274 97.1875 235.25 C97.2714502 236.53704834 97.35540039 237.82409668 97.44189453 239.15014648 C98.19002002 252.1486248 98 264.90587235 98 278 C-140.26 278 -378.52 278 -624 278 C-624 238.57715108 -624 238.57715108 -622.6875 224.375 C-622.54875187 222.7683592 -622.41058163 221.1616684 -622.27294922 219.55493164 C-618.86307841 180.52076771 -612.11973611 142.31035867 -600 105 C-599.7745752 104.30310059 -599.54915039 103.60620117 -599.31689453 102.88818359 C-596.26642425 93.58436831 -592.34464113 84.75837015 -588 76 C-587.60538574 75.1961084 -587.21077148 74.3922168 -586.80419922 73.56396484 C-577.73774143 55.21955637 -566.81554898 39.09104606 -553 24 C-552.32203369 23.25411621 -552.32203369 23.25411621 -551.63037109 22.49316406 C-543.90416873 14.09278778 -534.51172097 5.77805498 -524 1 C-524.495 0.01 -524.495 0.01 -525 -1 C-523.9054466 -0.99962028 -522.8108932 -0.99924056 -521.68317151 -0.99884933 C-473.46071779 -0.98218574 -425.23826389 -0.96675722 -377.01580811 -0.95765686 C-376.28611629 -0.9575188 -375.55642447 -0.95738075 -374.80462078 -0.95723851 C-358.94769566 -0.95424583 -343.09077051 -0.95147561 -327.23384531 -0.94893467 C-319.4579802 -0.9476873 -311.6821151 -0.94639075 -303.90625 -0.94506836 C-303.13244452 -0.9449376 -302.35863904 -0.94480684 -301.56138491 -0.94467212 C-276.46540554 -0.94040829 -251.36942842 -0.93289514 -226.27345041 -0.92370278 C-200.49108707 -0.91427612 -174.70872499 -0.90811594 -148.92635996 -0.90608501 C-145.28750281 -0.90579684 -141.64864566 -0.9054712 -138.00978851 -0.90512276 C-137.29358626 -0.90505533 -136.577384 -0.90498791 -135.83947864 -0.90491844 C-124.29545866 -0.90373523 -112.75144252 -0.89909314 -101.2074241 -0.89316797 C-89.61096621 -0.88728932 -78.01451308 -0.88511101 -66.41805366 -0.88649862 C-60.13112644 -0.88714157 -53.84421053 -0.88612931 -47.55728531 -0.88079453 C-41.80842283 -0.87595171 -36.05957933 -0.87566722 -30.310716 -0.87910111 C-28.22452097 -0.87952592 -26.13832478 -0.87823762 -24.05213204 -0.87511682 C-21.22872753 -0.8711368 -18.4053926 -0.87324676 -15.58198929 -0.87695217 C-14.7614464 -0.87432516 -13.94090352 -0.87169814 -13.0954957 -0.86899152 C-8.96899805 -0.83686162 -8.96899805 -0.83686162 -4.94886093 -1.63276241 C-3 -2 -3 -2 0 0 Z "
     fill="#CB7F48"
     transform="translate(775,168)"
     id="path3" />
  <path
     d="M0 0 C21.65281846 -0.2803877 43.30533745 -0.49196252 64.95960331 -0.62174606 C75.01429508 -0.68361069 85.06785863 -0.76794072 95.12182617 -0.90527344 C103.88551741 -1.02492443 112.64839169 -1.10230762 121.41287702 -1.12906194 C126.0536704 -1.14470148 130.6921268 -1.1814127 135.33217049 -1.26876068 C139.70204997 -1.35035472 144.06863628 -1.37531706 148.43920517 -1.35729218 C150.04094174 -1.36058799 151.6427907 -1.38439209 153.24386787 -1.4304657 C158.02525394 -1.56128396 162.40427961 -1.51456809 167 0 C170.4292583 3.60619766 172.23382179 7.38684821 174 12 C174.35669297 12.8173978 174.71338594 13.63479561 175.08088779 14.47696304 C175.92839384 16.43964406 176.63303745 18.41113822 177.3125 20.4375 C177.55033203 21.08525391 177.78816406 21.73300781 178.03320312 22.40039062 C182.65450507 35.72663807 182.29786339 49.54708059 182.265625 63.453125 C182.26697587 65.52374314 182.2689199 67.59436096 182.27142334 69.66497803 C182.27435738 73.98843427 182.27013441 78.3118074 182.26074219 82.63525391 C182.24937755 88.12955006 182.25589928 93.6236501 182.26788712 99.117939 C182.275177 103.39063953 182.2727849 107.66329498 182.26763153 111.93599701 C182.26631316 113.95943984 182.26787785 115.98288699 182.27259064 118.00632477 C182.32980263 149.47827081 182.32980263 149.47827081 177.3125 163.3125 C177.05049805 164.05830322 176.78849609 164.80410645 176.51855469 165.57250977 C170.19187027 182.88499241 159.06159222 195.28862795 143 204 C139.38985973 205.66113644 135.84406405 206.99742654 132 208 C131.39026337 208.16477341 130.78052673 208.32954681 130.15231323 208.49931335 C121.61966519 210.51774209 113.01564758 210.32820434 104.3046875 210.3359375 C102.58610936 210.34238082 100.86753227 210.34911026 99.1489563 210.35610962 C95.55663516 210.36803407 91.96440982 210.37179561 88.37207031 210.37060547 C83.81343593 210.37040293 79.25542947 210.39765933 74.69694328 210.43214989 C71.14827771 210.45460927 67.5997585 210.45843719 64.05102921 210.45738602 C62.37283295 210.45971523 60.69463094 210.46838358 59.0165062 210.48405075 C38.40699428 210.65841166 21.79645299 206.23565307 6.46484375 191.5859375 C-14.90599986 169.16517923 -15.1557017 138.6291564 -15.16796875 109.51953125 C-15.17119352 107.69024125 -15.17455844 105.86095149 -15.17805481 104.03166199 C-15.18399043 100.22723798 -15.18590024 96.42283651 -15.18530273 92.6184082 C-15.18520079 87.7773565 -15.19891109 82.93645039 -15.21607494 78.09543324 C-15.22725909 74.32817435 -15.22922007 70.56095015 -15.22869301 66.79367638 C-15.22986123 65.00974712 -15.23421666 63.22581662 -15.24202538 61.44190407 C-15.28179497 51.42981673 -14.94405491 41.86769717 -13 32 C-12.7525 30.72125 -12.505 29.4425 -12.25 28.125 C-10.02108039 19.85869184 -6.57899308 11.71083601 -2.3918457 4.25756836 C-1.94339798 3.45725693 -1.49495026 2.6569455 -1.03291321 1.8323822 C-0.69205185 1.22769608 -0.35119049 0.62300995 0 0 Z "
     fill="#FEC04E"
     transform="translate(428,516)"
     id="path4" />
  <path
     d="M0 0 C-1.485 0.495 -1.485 0.495 -3 1 C-2.35675781 1.30550781 -1.71351563 1.61101562 -1.05078125 1.92578125 C7.3627462 6.18655478 14.07454244 11.69918228 21 18 C21.73089844 18.65871094 22.46179688 19.31742188 23.21484375 19.99609375 C35.47673188 31.65617142 46.2956897 47.01724579 54 62 C53 63 53 63 51.20747721 63.12467116 C50.02101059 63.12443719 50.02101059 63.12443719 48.81057495 63.1241985 C47.44402425 63.12756944 47.44402425 63.12756944 46.04986647 63.13100848 C45.03533847 63.12838146 44.02081048 63.12575445 42.97553921 63.12304783 C41.90395645 63.12420167 40.83237369 63.12535552 39.72831872 63.12654433 C36.08908196 63.12921957 32.44988826 63.12468141 28.81065369 63.12025452 C26.19466709 63.12069003 23.57868054 63.12156458 20.96269423 63.12284368 C15.2500534 63.12492325 9.53742295 63.12326375 3.82478333 63.11920547 C-4.66979463 63.11318759 -13.164366 63.11286807 -21.6589457 63.11374746 C-35.9459475 63.11506356 -50.23294469 63.11171164 -64.51994514 63.10573006 C-78.67272019 63.09981981 -92.82549331 63.09596548 -106.97826958 63.09487724 C-108.29658226 63.09477413 -108.29658226 63.09477413 -109.64152751 63.09466894 C-114.10460703 63.09433062 -118.56768654 63.09402923 -123.03076606 63.09374207 C-154.67033298 63.09163978 -186.30989739 63.0848972 -217.94946289 63.07543945 C-248.69327786 63.06626005 -279.43709214 63.05917397 -310.1809082 63.05493164 C-311.12800813 63.05480011 -312.07510805 63.05466859 -313.05090797 63.05453308 C-322.56178389 63.05321459 -332.07265983 63.05193877 -341.58353576 63.05069422 C-360.95953474 63.04815778 -380.33553368 63.04533652 -399.71153259 63.04234314 C-400.60247528 63.04220585 -401.49341797 63.04206856 -402.41135892 63.04192711 C-461.94090699 63.03272124 -521.47045367 63.01687543 -581 63 C-580.36298691 61.71287032 -579.72447506 60.42648231 -579.08532715 59.14041138 C-578.729916 58.42397524 -578.37450485 57.7075391 -578.00832367 56.96939278 C-576.93385751 54.87081475 -575.75493386 52.92569413 -574.40625 50.9921875 C-573.93952881 50.32268066 -573.47280762 49.65317383 -572.99194336 48.96337891 C-572.49960205 48.27421387 -572.00726074 47.58504883 -571.5 46.875 C-570.71604858 45.77357666 -570.71604858 45.77357666 -569.91625977 44.64990234 C-564.68260359 37.4006501 -559.03521422 30.59240511 -553 24 C-552.54802246 23.50274414 -552.09604492 23.00548828 -551.63037109 22.49316406 C-543.90416873 14.09278778 -534.51172097 5.77805498 -524 1 C-524.495 0.01 -524.495 0.01 -525 -1 C-523.9054466 -0.99962028 -522.8108932 -0.99924056 -521.68317151 -0.99884933 C-473.46071779 -0.98218574 -425.23826389 -0.96675722 -377.01580811 -0.95765686 C-376.28611629 -0.9575188 -375.55642447 -0.95738075 -374.80462078 -0.95723851 C-358.94769566 -0.95424583 -343.09077051 -0.95147561 -327.23384531 -0.94893467 C-319.4579802 -0.9476873 -311.6821151 -0.94639075 -303.90625 -0.94506836 C-303.13244452 -0.9449376 -302.35863904 -0.94480684 -301.56138491 -0.94467212 C-276.46540554 -0.94040829 -251.36942842 -0.93289514 -226.27345041 -0.92370278 C-200.49108707 -0.91427612 -174.70872499 -0.90811594 -148.92635996 -0.90608501 C-145.28750281 -0.90579684 -141.64864566 -0.9054712 -138.00978851 -0.90512276 C-137.29358626 -0.90505533 -136.577384 -0.90498791 -135.83947864 -0.90491844 C-124.29545866 -0.90373523 -112.75144252 -0.89909314 -101.2074241 -0.89316797 C-89.61096621 -0.88728932 -78.01451308 -0.88511101 -66.41805366 -0.88649862 C-60.13112644 -0.88714157 -53.84421053 -0.88612931 -47.55728531 -0.88079453 C-41.80842283 -0.87595171 -36.05957933 -0.87566722 -30.310716 -0.87910111 C-28.22452097 -0.87952592 -26.13832478 -0.87823762 -24.05213204 -0.87511682 C-21.22872753 -0.8711368 -18.4053926 -0.87324676 -15.58198929 -0.87695217 C-14.7614464 -0.87432516 -13.94090352 -0.87169814 -13.0954957 -0.86899152 C-8.96899805 -0.83686162 -8.96899805 -0.83686162 -4.94886093 -1.63276241 C-3 -2 -3 -2 0 0 Z "
     fill="#CE854D"
     transform="translate(775,168)"
     id="path5" />
  <path
     d="M0 0 C84.48 0 168.96 0 256 0 C254.54716565 4.35850305 253.14966845 7.87061065 251.0625 11.875 C232.36675113 48.7661249 241.41372928 97.76436491 241 135 C165.76 135 90.52 135 13 135 C13 137.31 13 139.62 13 142 C12.67 142 12.34 142 12 142 C11.47090618 136.5469733 10.94205491 131.09392374 10.41577148 125.640625 C10.27198331 124.15104064 10.12818404 122.66145735 9.984375 121.171875 C9.90840591 120.38494263 9.83243683 119.59801025 9.75416565 118.78723145 C9.21777733 113.23718974 8.67647767 107.68764068 8.13345337 102.13824463 C5.98053908 80.12020403 3.86397255 58.0991502 1.95309448 36.05859375 C1.77828011 34.04542642 1.60183041 32.03240031 1.4236145 30.01953125 C1.1767532 27.22178949 0.93694228 24.42353126 0.69921875 21.625 C0.62760529 20.82400879 0.55599182 20.02301758 0.48220825 19.19775391 C-0.05332866 12.73330458 0 6.55719457 0 0 Z "
     fill="#BD7340"
     transform="translate(172,516)"
     id="path6" />
  <path
     d="M0 0 C84.48 0 168.96 0 256 0 C255.41372585 10.55293468 254.82097299 21.06384536 253.94921875 31.58984375 C253.85045441 32.80261993 253.75169006 34.01539612 253.64993286 35.2649231 C253.33192958 39.15601863 253.01004145 43.04677821 252.6875 46.9375 C252.57620848 48.28766266 252.46499285 49.63783158 252.35385132 50.98800659 C249.85229182 81.35322072 247.05478425 111.68560612 244 142 C243.67 142 243.34 142 243 142 C243 139.69 243 137.38 243 135 C130.14 135.495 130.14 135.495 15 136 C14.67 104.98 14.34 73.96 14 42 C11.82371187 29.34914717 11.82371187 29.34914717 8.125 17.625 C7.65320313 16.40039062 7.18140625 15.17578125 6.6953125 13.9140625 C4.64960415 9.19102157 2.30182703 4.60365405 0 0 Z "
     fill="#BE7340"
     transform="translate(595,516)"
     id="path7" />
  <path
     d="M0 0 C2.40256119 3.60384179 2.67440562 6.74549488 3.125 10.9375 C3.21136719 11.63423828 3.29773438 12.33097656 3.38671875 13.04882812 C4.11580944 19.46598349 4 25.42649272 4 32 C-232.28 32 -468.56 32 -712 32 C-712 21 -712 21 -710 3 C-475.7 3 -241.4 3 0 3 C0 2.01 0 1.02 0 0 Z "
     fill="#A35F35"
     transform="translate(866,353)"
     id="path8" />
  <path
     d="M0 0 C0.33 0 0.66 0 1 0 C1.48740008 4.29077138 1.96327956 8.58275364 2.4375 12.875 C2.57220703 14.05964844 2.70691406 15.24429688 2.84570312 16.46484375 C3.92780829 26.33575426 4.44679181 36.04225251 5 46 C214.88 46 424.76 46 641 46 C641 56.02219759 639.99724593 66.02754067 639 76 C430.11 76 221.22 76 6 76 C5.34 69.4 4.68 62.8 4 56 C3.58332769 51.93370037 3.58332769 51.93370037 3.1635437 47.86772156 C2.81662763 44.51176245 2.47837203 41.1549394 2.14013672 37.7980957 C1.96244227 36.04847619 1.78207558 34.29912613 1.59912109 32.55004883 C0.46163761 21.65101744 -0.28104327 10.9638104 0 0 Z "
     fill="#9F5B32"
     transform="translate(189,705)"
     id="path9" />
  <path
     d="M0 0 C1.03295713 1.86498862 1.99857134 3.76789608 2.91796875 5.69140625 C3.71557617 7.35526367 3.71557617 7.35526367 4.52929688 9.05273438 C5.07650391 10.21095703 5.62371094 11.36917969 6.1875 12.5625 C7.02571289 14.30563477 7.02571289 14.30563477 7.88085938 16.08398438 C12 24.72965316 12 24.72965316 12 27 C-206.46 27 -424.92 27 -650 27 C-646.62268866 16.86806597 -646.62268866 16.86806597 -644.7734375 13 C-644.185625 11.76443359 -644.185625 11.76443359 -643.5859375 10.50390625 C-643.18632813 9.67761719 -642.78671875 8.85132813 -642.375 8 C-641.96765625 7.14277344 -641.5603125 6.28554687 -641.140625 5.40234375 C-638.1465853 -0.8534147 -638.1465853 -0.8534147 -637 -2 C-635.60755143 -2.10006995 -634.21006324 -2.13094813 -632.81402695 -2.13406253 C-631.44862927 -2.14073661 -631.44862927 -2.14073661 -630.05564779 -2.14754552 C-628.53514211 -2.14729783 -628.53514211 -2.14729783 -626.98391914 -2.14704514 C-625.91323517 -2.15078614 -624.8425512 -2.15452715 -623.73942226 -2.15838152 C-620.10322491 -2.16983252 -616.46705339 -2.17407189 -612.83084106 -2.17840576 C-610.21699155 -2.1851123 -607.6031431 -2.19224951 -604.98929584 -2.19978356 C-598.5278628 -2.21758022 -592.06642943 -2.22995823 -585.60498129 -2.24072007 C-577.87045377 -2.25384916 -570.135943 -2.2727189 -562.40142802 -2.29170035 C-543.70470702 -2.33729325 -525.00797072 -2.37270014 -506.31122623 -2.40700389 C-497.4722608 -2.42329298 -488.63329801 -2.44084657 -479.79433533 -2.45855594 C-449.55733025 -2.51911302 -419.32032219 -2.57754848 -389.08329964 -2.62871933 C-387.18413224 -2.63193854 -385.28496483 -2.63515791 -383.38579743 -2.63837744 C-381.48195648 -2.64160308 -379.57811552 -2.64482856 -377.67427456 -2.64805388 C-373.85462705 -2.65452538 -370.03497954 -2.66100148 -366.21533203 -2.66748047 C-365.26827693 -2.6690847 -364.32122182 -2.67068894 -363.34546808 -2.67234178 C-332.62294557 -2.72446695 -301.90046609 -2.78889687 -271.1779837 -2.86070609 C-238.72150208 -2.93652331 -206.26501688 -3.00149525 -173.80848873 -3.05390286 C-170.2486876 -3.05969122 -166.68888654 -3.06552364 -163.12908554 -3.07138824 C-162.25251691 -3.07282716 -161.37594827 -3.07426608 -160.47281695 -3.07574861 C-146.33904792 -3.09920378 -132.20531871 -3.13256445 -118.07157899 -3.16941465 C-103.87750942 -3.20617013 -89.68345353 -3.23185946 -75.4893433 -3.24618712 C-67.04713325 -3.25503207 -58.6050367 -3.27229299 -50.16287173 -3.30141776 C-43.87319676 -3.32219864 -37.58360183 -3.32743355 -31.29389463 -3.32641616 C-28.73869669 -3.3284709 -26.18349703 -3.33568472 -23.62832977 -3.3483735 C-20.17465037 -3.36479024 -16.72146334 -3.3629874 -13.26776314 -3.35631943 C-12.25877502 -3.36551897 -11.2497869 -3.37471851 -10.21022338 -3.38419682 C-8.83731514 -3.37584979 -8.83731514 -3.37584979 -7.43667138 -3.36733413 C-6.64622933 -3.36882617 -5.85578729 -3.37031822 -5.04139245 -3.37185548 C-2.45472916 -2.90067468 -1.62391663 -2.02831802 0 0 Z "
     fill="#A66137"
     transform="translate(831,233)"
     id="path10" />
  <path
     d="M0 0 C0.33 0 0.66 0 1 0 C1.17450733 1.43656925 1.33896392 2.87435835 1.5 4.3125 C1.5928125 5.11300781 1.685625 5.91351562 1.78125 6.73828125 C2.09939767 11.48209022 2 16.24553458 2 21 C205.61 21 409.22 21 619 21 C619 34.5 619 34.5 618.5 39.25 C618.4071875 40.16265625 618.314375 41.0753125 618.21875 42.015625 C618.1465625 42.67046875 618.074375 43.3253125 618 44 C612.88160694 45.69066092 608.7018014 46.1993424 603.25 46.0625 C598.02851591 45.8869217 598.02851591 45.8869217 593 47 C591.948125 46.835 590.89625 46.67 589.8125 46.5 C584.763473 45.74641388 579.78028004 46.241902 574.72387695 46.68164062 C570.88795259 46.98996332 567.73947778 46.79148456 564 46 C561.13516097 45.90346429 558.30149456 45.85885738 555.4375 45.875 C554.2002417 45.87681274 554.2002417 45.87681274 552.93798828 45.87866211 C545.92449955 45.92162882 538.93550624 46.24527124 531.93920898 46.73193359 C528.210222 46.96482603 524.69890233 47.03461734 520.9921875 46.53515625 C514.38557757 45.68392274 507.71871826 45.85126045 501.06933594 45.86962891 C498.7414712 45.87501975 496.41379662 45.86964152 494.0859375 45.86328125 C492.59374958 45.86394156 491.10156177 45.86522175 489.609375 45.8671875 C488.57487213 45.86415115 488.57487213 45.86415115 487.51947021 45.86105347 C484.68279908 45.87478283 482.05611207 45.98824883 479.27441406 46.57080078 C477 47 477 47 475.15921497 46.53476143 C472.7551053 45.93934822 470.65411263 45.87412816 468.17814636 45.87301636 C467.20986908 45.87019653 466.2415918 45.86737671 465.24397278 45.86447144 C464.18788315 45.86649567 463.13179352 45.8685199 462.04370117 45.87060547 C460.36721497 45.86797699 460.36721497 45.86797699 458.65686035 45.86529541 C454.95221412 45.86088582 451.24761549 45.86381397 447.54296875 45.8671875 C444.96145112 45.86651368 442.37993355 45.86554301 439.79841614 45.86428833 C434.37707866 45.86281214 428.955759 45.86486576 423.53442383 45.86962891 C417.30325916 45.87504104 411.07212738 45.87333058 404.84096354 45.8678025 C398.81820429 45.86267651 392.79546084 45.8632726 386.77269936 45.86618423 C384.22567045 45.86684715 381.67864069 45.86604752 379.13161278 45.86370468 C361.5594412 45.82084416 361.5594412 45.82084416 344.02079773 46.77294922 C338.22978859 47.20821608 332.42922815 47.14601893 326.625 47.125 C325.94429443 47.12411377 325.26358887 47.12322754 324.56225586 47.12231445 C316.57723038 47.11048479 308.5986727 47.01479472 300.6171875 46.7734375 C299.8939328 46.75168457 299.1706781 46.72993164 298.42550659 46.70751953 C297.68261383 46.68512207 296.93972107 46.66272461 296.17431641 46.63964844 C273.77754593 45.96656832 251.3876985 45.8853487 228.98251343 45.87661743 C226.26543816 45.87500914 223.5483715 45.87145493 220.83129883 45.86743164 C216.48547519 45.86151642 212.13968663 45.86139554 207.79386139 45.86568069 C206.17650623 45.86666906 204.55914922 45.86610944 202.94179535 45.86384201 C194.61755353 45.85427071 186.38761185 46.05111211 178.08786011 46.77316284 C172.73695696 47.16624531 167.39023508 47.14255955 162.02734375 47.1328125 C160.82477432 47.13376923 159.6222049 47.13472595 158.38319397 47.13571167 C155.84782865 47.13638791 153.31246154 47.13457273 150.77709961 47.13037109 C146.99914394 47.12508623 143.22131106 47.13029828 139.44335938 47.13671875 C125.53973141 47.13921298 111.67434614 46.91139918 97.78440857 46.26150513 C96.14037804 46.1898262 96.14037804 46.1898262 94.46313477 46.11669922 C93.02080223 46.04719559 93.02080223 46.04719559 91.54933167 45.97628784 C89.14979561 45.9986067 87.29861063 46.3775251 85 47 C82.45326842 47.00431619 79.94409966 46.95242933 77.40234375 46.84375 C75.87118454 46.78944754 74.34001551 46.73542145 72.80883789 46.68164062 C72.0120462 46.65175049 71.21525452 46.62186035 70.39431763 46.59106445 C52.87466929 45.93564028 52.87466929 45.93564028 35.36889648 46.68164062 C31.64518759 46.98498288 28.63733638 46.74499661 25 46 C21.9781573 45.8970286 18.96025732 45.9512065 15.9375 46 C14.34251766 46.02562221 12.74745279 46.0466151 11.15234375 46.0625 C10.45101318 46.07410156 9.74968262 46.08570313 9.02709961 46.09765625 C6.90143971 45.99525182 5.04229419 45.58212117 3 45 C2.56547414 40.52068553 2.13859199 36.04072212 1.71826172 31.56005859 C1.57476573 30.04131248 1.42931486 28.52274957 1.28173828 27.00439453 C0.40572952 17.97614097 -0.2373243 9.0842468 0 0 Z "
     fill="#B86D3C"
     transform="translate(201,837)"
     id="path11" />
  <path
     d="M0 0 C8.54166087 6.24783206 13.4895875 14.24347765 15.72265625 24.56640625 C17.76083418 40.4001852 17.00193637 54.00296131 7.72265625 67.390625 C6.1953125 69.23828125 6.1953125 69.23828125 3.3203125 71.23828125 C0.77504447 73.17970981 0.77504447 73.17970981 0.94140625 76.96484375 C1.10022819 83.57448347 2.157203 90.08446193 3.1328125 96.61328125 C3.40641602 98.51787109 3.40641602 98.51787109 3.68554688 100.4609375 C4.56141957 106.93626934 4.56141957 106.93626934 6.1953125 113.23828125 C6.69455087 118.45163931 6.82145955 122.86075774 4.6328125 127.67578125 C-0.92692136 133.52062967 -6.50232836 135.01938785 -14.42456055 135.34643555 C-44.86694171 135.97610067 -44.86694171 135.97610067 -51.9296875 130.42578125 C-55.59652972 126.723252 -56.73263823 123.9231257 -56.95703125 118.67578125 C-56.92025786 113.84255027 -55.96338396 109.31824094 -54.9296875 104.61328125 C-51.37008454 89.05524312 -51.37008454 89.05524312 -50.8046875 73.23828125 C-52.31326031 71.21039456 -52.31326031 71.21039456 -54.4921875 69.80078125 C-62.71548938 63.21923399 -65.37071322 55.5651193 -66.8046875 45.23828125 C-67.82697555 30.99626824 -66.22955605 17.61433618 -57.125 6.1171875 C-42.44652755 -9.99258828 -17.87819163 -11.22989474 0 0 Z "
     fill="#91502C"
     transform="translate(536.8046875,543.76171875)"
     id="path12" />
  <path
     d="M0 0 C84.48 0 168.96 0 256 0 C254.54716565 4.35850305 253.14966845 7.87061065 251.0625 11.875 C246.24766562 21.42286332 243.92390815 30.52084073 242 41 C241.67 41 241.34 41 241 41 C240.875 34.25 240.875 34.25 242 32 C162.8 32 83.6 32 2 32 C0 12 0 12 0 0 Z "
     fill="#92512C"
     transform="translate(172,516)"
     id="path13" />
  <path
     d="M0 0 C84.48 0 168.96 0 256 0 C254.85072802 20.68689572 254.85072802 20.68689572 254.24609375 27.1953125 C254.18092056 27.92450897 254.11574738 28.65370544 254.04859924 29.40499878 C253.84773858 31.64526661 253.64274413 33.88513004 253.4375 36.125 C253.29724544 37.68096431 253.15727064 39.23695387 253.01757812 40.79296875 C252.68158499 44.52894017 252.34189504 48.26456348 252 52 C251.67 52 251.34 52 251 52 C250.97277483 49.79173622 250.95350271 47.58337362 250.9375 45.375 C250.92589844 44.14523437 250.91429687 42.91546875 250.90234375 41.6484375 C251 38 251 38 252 32 C173.13 32 94.26 32 13 32 C10.69 25.4 8.38 18.8 6 12 C4.02 8.04 2.04 4.08 0 0 Z "
     fill="#92512C"
     transform="translate(595,516)"
     id="path14" />
  <path
     d="M0 0 C0.33 0 0.66 0 1 0 C1 30.03 1 60.06 1 91 C-74.24 91 -149.48 91 -227 91 C-227 93.31 -227 95.62 -227 98 C-227.33 98 -227.66 98 -228 98 C-228.43433005 93.78722952 -228.86122745 89.5737861 -229.28173828 85.35961914 C-229.42528709 83.93103552 -229.57074098 82.50264182 -229.71826172 81.07446289 C-230.58161534 72.70228201 -231.24195846 64.42933991 -231 56 C-230.67 56 -230.34 56 -230 56 C-230 58.64 -230 61.28 -230 64 C-154.1 64 -78.2 64 0 64 C0 42.88 0 21.76 0 0 Z "
     fill="#9A5830"
     transform="translate(412,560)"
     id="path15" />
  <path
     d="M0 0 C21.65281846 -0.2803877 43.30533745 -0.49196252 64.95960331 -0.62174606 C75.01429508 -0.68361069 85.06785863 -0.76794072 95.12182617 -0.90527344 C103.88551741 -1.02492443 112.64839169 -1.10230762 121.41287702 -1.12906194 C126.0536704 -1.14470148 130.6921268 -1.1814127 135.33217049 -1.26876068 C139.70204997 -1.35035472 144.06863628 -1.37531706 148.43920517 -1.35729218 C150.04094174 -1.36058799 151.6427907 -1.38439209 153.24386787 -1.4304657 C158.02526693 -1.56128432 162.40406819 -1.51393704 167 0 C170.43272379 3.60479395 172.23580412 7.3847523 174 12 C174.36226213 12.83993626 174.72452425 13.67987251 175.09776402 14.54526138 C175.95897651 16.5696093 176.68405085 18.59943122 177.375 20.6875 C177.62193604 21.409375 177.86887207 22.13125 178.12329102 22.875 C179.79252557 27.92535873 180.90447753 32.65074165 181 38 C179.23049318 39.76950682 176.67476034 39.18277891 174.27441406 39.22460938 C173.04934143 39.24712769 171.8242688 39.269646 170.56207275 39.29284668 C164.94486118 39.36833882 159.32753913 39.42156261 153.70996094 39.45996094 C150.74322599 39.48222933 147.77775057 39.5239776 144.81152344 39.58300781 C141.23108823 39.65412573 137.65183735 39.69079619 134.07073212 39.70307922 C132.70708564 39.71347742 131.34347481 39.73589747 129.98023224 39.77067566 C119.26695509 40.02980845 119.26695509 40.02980845 116.11395264 37.46697998 C114.78515625 35.58691406 114.78515625 35.58691406 113.8527832 33.7119751 C112.49378363 30.98376303 110.29462401 29.81248843 107.75 28.25 C106.87859375 27.69828125 106.0071875 27.1465625 105.109375 26.578125 C98.02146052 22.98074127 91.56020035 21.46019413 83.625 21.5625 C82.79572998 21.57007324 81.96645996 21.57764648 81.11206055 21.58544922 C70.63479326 21.86593493 62.87548246 25.14526349 55 32 C54.4635083 32.60010391 53.9270166 33.20020782 53.37426758 33.8184967 C49.3687813 38.07467922 46.35286208 39.48555616 40.4921875 39.79467773 C37.95285526 39.79357785 35.41334178 39.75451952 32.875 39.68359375 C31.51882499 39.67051484 30.16261659 39.6605615 28.80639648 39.65357971 C25.26111246 39.62703176 21.71788147 39.55843482 18.17340088 39.48065186 C14.54687263 39.40864884 10.92000792 39.37699002 7.29296875 39.34179688 C0.19447976 39.26704268 -6.9026251 39.14779814 -14 39 C-12.27692616 26.62921343 -8.52325346 15.17168696 -2.3918457 4.25756836 C-1.94339798 3.45725693 -1.49495026 2.6569455 -1.03291321 1.8323822 C-0.69205185 1.22769608 -0.35119049 0.62300995 0 0 Z "
     fill="#E59C40"
     transform="translate(428,516)"
     id="path16" />
  <path
     d="M0 0 C114.84 0.495 114.84 0.495 232 1 C230 28 230 28 229 35 C228.67 35 228.34 35 228 35 C228 32.69 228 30.38 228 28 C115.14 28.495 115.14 28.495 0 29 C0 19.43 0 9.86 0 0 Z "
     fill="#9A5830"
     transform="translate(610,623)"
     id="path17" />
  <path
     d="M0 0 C29.37 0 58.74 0 89 0 C89 26 89 26 87 32 C57.96 32 28.92 32 -1 32 C-2 18 -2 18 0 0 Z "
     fill="#E49A3F"
     transform="translate(851,516)"
     id="path18" />
  <path
     d="M0 0 C29.04 0 58.08 0 88 0 C90 23 90 23 90 32 C78.6738837 32.02312255 67.34777297 32.04091464 56.02163792 32.05181217 C50.76303336 32.05704119 45.5044449 32.06413918 40.24584961 32.07543945 C35.17546873 32.08626766 30.10510338 32.09227669 25.03471184 32.09487724 C23.09573052 32.09673161 21.15675009 32.10035245 19.21777534 32.10573006 C16.5117824 32.1129396 13.80585444 32.11399098 11.09985352 32.11352539 C9.88497505 32.1189183 9.88497505 32.1189183 8.64555359 32.12442017 C3.11405216 32.11405216 3.11405216 32.11405216 2 31 C1.48066395 27.89763923 1.24148963 24.75496725 0.9375 21.625 C0.84662109 20.76777344 0.75574219 19.91054688 0.66210938 19.02734375 C0.02262753 12.59406023 0 6.53253442 0 0 Z "
     fill="#E49B3F"
     transform="translate(84,516)"
     id="path19" />
  <path
     d="M0 0 C2.35119399 3.52679099 2.21443452 5.02879485 2.125 9.1875 C2.10695313 10.27417969 2.08890625 11.36085938 2.0703125 12.48046875 C2.03550781 13.72763672 2.03550781 13.72763672 2 15 C1.67 15 1.34 15 1 15 C0.67 11.37 0.34 7.74 0 4 C-233.64 4 -467.28 4 -708 4 C-708.33 7.63 -708.66 11.26 -709 15 C-709.33 15 -709.66 15 -710 15 C-710 11.04 -710 7.08 -710 3 C-475.7 3 -241.4 3 0 3 C0 2.01 0 1.02 0 0 Z "
     fill="#8D4D2B"
     transform="translate(866,353)"
     id="path20" />
  <path
     d="M0 0 C0 2.64 0 5.28 0 8 C-0.33 8 -0.66 8 -1 8 C-1 6.02 -1 4.04 -1 2 C-209.89 2.33 -418.78 2.66 -634 3 C-634.33 7.62 -634.66 12.24 -635 17 C-635.33 17 -635.66 17 -636 17 C-636.67585277 13.029365 -637.06091937 9.27741892 -637.03125 5.24609375 C-637.02673828 4.44743896 -637.02222656 3.64878418 -637.01757812 2.82592773 C-637.01177734 2.22337158 -637.00597656 1.62081543 -637 1 C-576.37983704 0.90465834 -515.75967408 0.80931862 -455.13951111 0.71398926 C-453.79482858 0.71187465 -453.79482858 0.71187465 -452.42298075 0.70971733 C-432.94303431 0.67908377 -413.46308787 0.64845057 -393.98314143 0.61781773 C-384.43089962 0.60279652 -374.87865782 0.58777523 -365.32641602 0.57275391 C-363.90053222 0.57051164 -363.90053222 0.57051164 -362.4458427 0.56822408 C-331.60568167 0.51972655 -300.76552065 0.47122392 -269.92535963 0.42271865 C-238.24682481 0.37289482 -206.56828998 0.32307611 -174.88975514 0.2732639 C-170.42071462 0.26623665 -165.95167411 0.25920935 -161.48263359 0.25218201 C-160.16320917 0.25010728 -160.16320917 0.25010728 -158.8171297 0.24799064 C-144.62807361 0.22567894 -130.43901752 0.2033618 -116.24996144 0.18104266 C-102.00314569 0.15863277 -87.75632993 0.13622855 -73.50951416 0.11383021 C-65.03361477 0.10050452 -56.55771538 0.0871744 -48.08181601 0.07383808 C-41.77055059 0.06390816 -35.45928516 0.05398634 -29.14801972 0.0440678 C-26.58139709 0.0400329 -24.01477446 0.03599529 -21.44815183 0.03195482 C-17.98399975 0.02650182 -14.51984764 0.0210583 -11.05569553 0.01561737 C-10.03795885 0.01401303 -9.02022216 0.01240868 -7.97164497 0.01075572 C-7.05774433 0.0093223 -6.1438437 0.00788888 -5.20224911 0.00641203 C-4.40877567 0.00516418 -3.61530224 0.00391634 -2.79778415 0.00263068 C-1.86519002 0.00126602 -0.93259513 0 0 0 Z "
     fill="#864A28"
     transform="translate(830,751)"
     id="path21" />
  <path
     d="M0 0 C0.33 0 0.66 0 1 0 C1 30.03 1 60.06 1 91 C-74.24 91 -149.48 91 -227 91 C-227 93.31 -227 95.62 -227 98 C-227.33 98 -227.66 98 -228 98 C-229.32719886 91.03220597 -229.08825381 84.07011089 -229 77 C-228.67 77 -228.34 77 -228 77 C-227.67 81.29 -227.34 85.58 -227 90 C-152.09 90 -77.18 90 0 90 C0 81.75 0 73.5 0 65 C-75.57 65 -151.14 65 -229 65 C-229 68.63 -229 72.26 -229 76 C-229.33 76 -229.66 76 -230 76 C-230.88021369 69.28837062 -231.11381955 62.76594019 -231 56 C-230.67 56 -230.34 56 -230 56 C-230 58.64 -230 61.28 -230 64 C-154.1 64 -78.2 64 0 64 C0 42.88 0 21.76 0 0 Z "
     fill="#7F4127"
     transform="translate(412,560)"
     id="path22" />
  <path
     d="M0 0 C114.84 0.495 114.84 0.495 232 1 C231.67 4.3 231.34 7.6 231 11 C230.67 11 230.34 11 230 11 C230 8.03 230 5.06 230 2 C154.76 2 79.52 2 2 2 C2 10.25 2 18.5 2 27 C76.58 27 151.16 27 228 27 C228.33 22.38 228.66 17.76 229 13 C229.33 13 229.66 13 230 13 C230.02726927 15.35424675 230.04696719 17.70816962 230.0625 20.0625 C230.07410156 21.37347656 230.08570313 22.68445313 230.09765625 24.03515625 C230.00452335 27.8163519 229.61448726 31.27920707 229 35 C228.67 35 228.34 35 228 35 C228 32.69 228 30.38 228 28 C115.14 28.495 115.14 28.495 0 29 C0 19.43 0 9.86 0 0 Z "
     fill="#804326"
     transform="translate(610,623)"
     id="path23" />
  <path
     d="M0 0 C84.48 0 168.96 0 256 0 C254 6 254 6 252 7 C252.33 5.68 252.66 4.36 253 3 C128.26 2.505 128.26 2.505 1 2 C1 3.98 1 5.96 1 8 C0.67 8 0.34 8 0 8 C0 5.36 0 2.72 0 0 Z "
     fill="#7F3C23"
     transform="translate(172,516)"
     id="path24" />
  <path
     d="M0 0 C84.48 0 168.96 0 256 0 C256 0.66 256 1.32 256 2 C172.51 2 89.02 2 3 2 C3.66 3.98 4.32 5.96 5 8 C1.99530649 5.40503742 1.63141204 4.0785301 0 0 Z "
     fill="#7F3C22"
     transform="translate(595,516)"
     id="path25" />
  <path
     d="M0 0 C0.33 0 0.66 0 1 0 C1.30535107 12.1461869 0.38403895 23.93908911 -1 36 C-1.33 36 -1.66 36 -2 36 C-2.02722517 33.79173622 -2.04649729 31.58337362 -2.0625 29.375 C-2.07410156 28.14523437 -2.08570313 26.91546875 -2.09765625 25.6484375 C-2 22 -2 22 -1 16 C-79.87 16 -158.74 16 -240 16 C-240.33 14.02 -240.66 12.04 -241 10 C-239 12 -239 12 -239 15 C-160.46 15 -81.92 15 -1 15 C-0.67 10.05 -0.34 5.1 0 0 Z "
     fill="#804526"
     transform="translate(848,532)"
     id="path26" />
  <path
     d="M0 0 C45.87 0 91.74 0 139 0 C139 0.33 139 0.66 139 1 C138.01829834 1.02505615 137.03659668 1.0501123 136.02514648 1.07592773 C132.30680018 1.17165266 128.58857111 1.27143715 124.87036133 1.37231445 C123.27533756 1.41505117 121.68028569 1.45675454 120.08520508 1.49731445 C112.12656588 1.70035375 104.19122712 1.94953732 96.25 2.52734375 C89.01199927 3.04231365 81.81695613 3.15176575 74.5625 3.125 C73.9011203 3.12378143 73.2397406 3.12256287 72.55831909 3.12130737 C60.39001031 3.09565741 48.22692129 2.85804751 36.0625 2.5625 C35.23372345 2.5429425 34.4049469 2.52338501 33.55105591 2.50323486 C22.34975036 2.2324992 11.18079754 1.72974694 0 1 C0 0.67 0 0.34 0 0 Z "
     fill="#AF6938"
     transform="translate(453,881)"
     id="path27" />
  <path
     d="M0 0 C29.04 0 58.08 0 88 0 C88 2.31 88 4.62 88 7 C87.34 7.66 86.68 8.32 86 9 C85.505 8.505 85.505 8.505 85 8 C85 5.69 85 3.38 85 1 C56.95 1 28.9 1 0 1 C0 0.67 0 0.34 0 0 Z "
     fill="#DA8A38"
     transform="translate(84,516)"
     id="path28" />
  <path
     d="M0 0 C0.33 0 0.66 0 1 0 C1.30535107 12.1461869 0.38403895 23.93908911 -1 36 C-1.33 36 -1.66 36 -2 36 C-2.02722517 33.79173622 -2.04649729 31.58337362 -2.0625 29.375 C-2.07410156 28.14523437 -2.08570313 26.91546875 -2.09765625 25.6484375 C-2.00863924 22.32276209 -1.63686087 19.25952412 -1 16 C-3.31 16 -5.62 16 -8 16 C-8 15.67 -8 15.34 -8 15 C-5.69 15 -3.38 15 -1 15 C-0.67 10.05 -0.34 5.1 0 0 Z "
     fill="#8C442B"
     transform="translate(848,532)"
     id="path29" />
  <path
     d="M0 0 C0.66 0 1.32 0 2 0 C-0.30643508 8.13815304 -3.10428784 16.05682118 -6 24 C-6.33 24 -6.66 24 -7 24 C-6.69156849 15.20970201 -3.43222587 7.96654261 0 0 Z "
     fill="#FDCB56"
     transform="translate(79,262)"
     id="path30" />
  <path
     d="M0 0 C4.95 0 9.9 0 15 0 C15 0.33 15 0.66 15 1 C9.06 1.495 9.06 1.495 3 2 C2.67 6.62 2.34 11.24 2 16 C1.67 16 1.34 16 1 16 C0.07962623 10.59280411 -0.08441199 5.48677955 0 0 Z "
     fill="#833E27"
     transform="translate(193,752)"
     id="path31" />
  <path
     d="M0 0 C0.33 0 0.66 0 1 0 C1.12036664 5.77759884 0.8320582 11.27959989 0 17 C-0.33 17 -0.66 17 -1 17 C-1.19412181 15.52168779 -1.38012131 14.04230684 -1.5625 12.5625 C-1.66691406 11.73878906 -1.77132812 10.91507812 -1.87890625 10.06640625 C-1.91886719 9.38449219 -1.95882812 8.70257813 -2 8 C-1.67 7.67 -1.34 7.34 -1 7 C-0.63239269 4.67182036 -0.29758419 2.3381615 0 0 Z "
     fill="#FECB56"
     transform="translate(54,370)"
     id="path34" />
  <path
     d="M0 0 C0.99 0 1.98 0 3 0 C3 2.64 3 5.28 3 8 C2.01 8.495 2.01 8.495 1 9 C-0.4783226 6.04335481 -0.06032783 3.25770263 0 0 Z "
     fill="#F5B64B"
     transform="translate(840,638)"
     id="path35" />
  <path
     d="M0 0 C0.125 3.375 0.125 3.375 0 7 C-0.66 7.66 -1.32 8.32 -2 9 C-3 8 -3 8 -3.0625 4.4375 C-3.041875 3.303125 -3.02125 2.16875 -3 1 C-1 0 -1 0 0 0 Z "
     fill="#DF933C"
     transform="translate(172,516)"
     id="path36" />
  <path
     d="M0 0 C1 4 1 4 1 4 Z "
     fill="#F5B949"
     transform="translate(109,820)"
     id="path43" />
  <path
     d="M0 0 C1 4 1 4 1 4 Z "
     fill="#F7BB4B"
     transform="translate(108,812)"
     id="path44" />
  <path
     d="M0 0 C1 4 1 4 1 4 Z "
     fill="#F7BA4B"
     transform="translate(916,788)"
     id="path45" />
  <path
     d="M0 0 C1 4 1 4 1 4 Z "
     fill="#F9BD4E"
     transform="translate(100,721)"
     id="path46" />
  <path
     d="M0 0 C1 4 1 4 1 4 Z "
     fill="#FBBE4E"
     transform="translate(90,611)"
     id="path47" />
  <path
     d="M0 0 C1 4 1 4 1 4 Z "
     fill="#F3B44A"
     transform="translate(84,547)"
     id="path48" />
  <path
     d="M0 0 C1 4 1 4 1 4 Z "
     fill="#FDC251"
     transform="translate(48,404)"
     id="path49" />
  <path
     d=""
     fill="#F9BD4C"
     transform="translate(0,0)"
     id="path50" />
  <path
     d=""
     fill="#F8BE4B"
     transform="translate(0,0)"
     id="path51" />
  <path
     d=""
     fill="#F9BC4D"
     transform="translate(0,0)"
     id="path52" />
  <path
     d=""
     fill="#EEAE49"
     transform="translate(0,0)"
     id="path53" />
  <path
     d=""
     fill="#FAC050"
     transform="translate(0,0)"
     id="path54" />
  <path
     d=""
     fill="#FBC052"
     transform="translate(0,0)"
     id="path55" />
  <path
     d=""
     fill="#F9BE4E"
     transform="translate(0,0)"
     id="path56" />
  <path
     d=""
     fill="#FABD4C"
     transform="translate(0,0)"
     id="path57" />
  <path
     d=""
     fill="#FDC04F"
     transform="translate(0,0)"
     id="path58" />
  <path
     d=""
     fill="#FAC04C"
     transform="translate(0,0)"
     id="path59" />
  <path
     d=""
     fill="#FBBF4D"
     transform="translate(0,0)"
     id="path60" />
  <path
     d=""
     fill="#F9BE4E"
     transform="translate(0,0)"
     id="path61" />
  <path
     d=""
     fill="#FCBF50"
     transform="translate(0,0)"
     id="path62" />
  <path
     d=""
     fill="#F6B94B"
     transform="translate(0,0)"
     id="path63" />
  <path
     d=""
     fill="#F5B74B"
     transform="translate(0,0)"
     id="path64" />
  <path
     d=""
     fill="#EFAC48"
     transform="translate(0,0)"
     id="path65" />
  <path
     d=""
     fill="#FCBF50"
     transform="translate(0,0)"
     id="path66" />
  <path
     d=""
     fill="#FDC253"
     transform="translate(0,0)"
     id="path67" />
  <path
     d=""
     fill="#FEC251"
     transform="translate(0,0)"
     id="path68" />
  <path
     d="M0 0 C2 1 2 1 2 1 Z "
     fill="#FDC251"
     transform="translate(52,358)"
     id="path69" />
  <path
     d=""
     fill="#F6BB4E"
     transform="translate(0,0)"
     id="path70" />
  <path
     d=""
     fill="#F3BB4D"
     transform="translate(0,0)"
     id="path71" />
  <path
     d="M0 0 C2 1 2 1 2 1 Z "
     fill="#F0B54D"
     transform="translate(146,176)"
     id="path72" />
  <path
     d=""
     fill="#73461F"
     transform="translate(0,0)"
     id="path73" />
  <path
     d=""
     fill="#B76E39"
     transform="translate(0,0)"
     id="path74" />
  <path
     d=""
     fill="#B76E3B"
     transform="translate(0,0)"
     id="path75" />
  <path
     d=""
     fill="#D18E45"
     transform="translate(0,0)"
     id="path76" />
  <path
     d=""
     fill="#D99545"
     transform="translate(0,0)"
     id="path77" />
  <path
     d=""
     fill="#EBAE47"
     transform="translate(0,0)"
     id="path78" />
  <path
     d=""
     fill="#EDAD48"
     transform="translate(0,0)"
     id="path79" />
  <path
     d=""
     fill="#E8AD48"
     transform="translate(0,0)"
     id="path80" />
  <path
     d=""
     fill="#E9AF47"
     transform="translate(0,0)"
     id="path81" />
  <path
     d=""
     fill="#E8AD44"
     transform="translate(0,0)"
     id="path82" />
  <path
     d=""
     fill="#EAAF48"
     transform="translate(0,0)"
     id="path83" />
  <path
     d=""
     fill="#ECAE45"
     transform="translate(0,0)"
     id="path84" />
  <path
     d=""
     fill="#EEB149"
     transform="translate(0,0)"
     id="path85" />
  <path
     d=""
     fill="#F2B54B"
     transform="translate(0,0)"
     id="path86" />
  <path
     d=""
     fill="#F5B64B"
     transform="translate(0,0)"
     id="path87" />
  <path
     d=""
     fill="#F0B347"
     transform="translate(0,0)"
     id="path88" />
  <path
     d=""
     fill="#F9BB4B"
     transform="translate(0,0)"
     id="path89" />
  <path
     d=""
     fill="#FABC4E"
     transform="translate(0,0)"
     id="path90" />
  <path
     d=""
     fill="#F9BA4C"
     transform="translate(0,0)"
     id="path91" />
  <path
     d=""
     fill="#FABC4D"
     transform="translate(0,0)"
     id="path92" />
  <path
     d=""
     fill="#F9BC4E"
     transform="translate(0,0)"
     id="path93" />
  <path
     d=""
     fill="#FBBC4E"
     transform="translate(0,0)"
     id="path94" />
  <path
     d=""
     fill="#F7BA4B"
     transform="translate(0,0)"
     id="path95" />
  <path
     d=""
     fill="#FBBD4E"
     transform="translate(0,0)"
     id="path96" />
  <path
     d=""
     fill="#FABE4E"
     transform="translate(0,0)"
     id="path97" />
  <path
     d=""
     fill="#FABC4D"
     transform="translate(0,0)"
     id="path98" />
  <path
     d=""
     fill="#F8BD4D"
     transform="translate(0,0)"
     id="path99" />
  <path
     d=""
     fill="#F8BF4E"
     transform="translate(0,0)"
     id="path100" />
  <path
     d=""
     fill="#FABD4E"
     transform="translate(0,0)"
     id="path101" />
  <path
     d=""
     fill="#F9BE4B"
     transform="translate(0,0)"
     id="path102" />
  <path
     d=""
     fill="#FBBE4D"
     transform="translate(0,0)"
     id="path103" />
  <path
     d=""
     fill="#FBC050"
     transform="translate(0,0)"
     id="path104" />
  <path
     d=""
     fill="#FABE4F"
     transform="translate(0,0)"
     id="path105" />
  <path
     d=""
     fill="#FCBF4E"
     transform="translate(0,0)"
     id="path106" />
  <path
     d=""
     fill="#FBBF4F"
     transform="translate(0,0)"
     id="path107" />
  <path
     d=""
     fill="#F9BF4E"
     transform="translate(0,0)"
     id="path108" />
  <path
     d=""
     fill="#F9BF4E"
     transform="translate(0,0)"
     id="path109" />
  <path
     d=""
     fill="#F9BE4F"
     transform="translate(0,0)"
     id="path110" />
  <path
     d=""
     fill="#FABF4F"
     transform="translate(0,0)"
     id="path111" />
  <path
     d=""
     fill="#FBC04E"
     transform="translate(0,0)"
     id="path112" />
  <path
     d=""
     fill="#FDBE4F"
     transform="translate(0,0)"
     id="path113" />
  <path
     d=""
     fill="#FCC050"
     transform="translate(0,0)"
     id="path114" />
  <path
     d=""
     fill="#FCC050"
     transform="translate(0,0)"
     id="path115" />
  <path
     d=""
     fill="#FBC04E"
     transform="translate(0,0)"
     id="path116" />
  <path
     d=""
     fill="#FDBE4F"
     transform="translate(0,0)"
     id="path117" />
  <path
     d=""
     fill="#FABE51"
     transform="translate(0,0)"
     id="path118" />
  <path
     d=""
     fill="#F9BD4E"
     transform="translate(0,0)"
     id="path119" />
  <path
     d=""
     fill="#F4BA4C"
     transform="translate(0,0)"
     id="path120" />
  <path
     d=""
     fill="#F6B649"
     transform="translate(0,0)"
     id="path121" />
  <path
     d=""
     fill="#F2B147"
     transform="translate(0,0)"
     id="path122" />
  <path
     d=""
     fill="#F2B149"
     transform="translate(0,0)"
     id="path123" />
  <path
     d=""
     fill="#F0AF48"
     transform="translate(0,0)"
     id="path124" />
  <path
     d=""
     fill="#F1AF48"
     transform="translate(0,0)"
     id="path125" />
  <path
     d=""
     fill="#F1AF48"
     transform="translate(0,0)"
     id="path126" />
  <path
     d=""
     fill="#F0AF48"
     transform="translate(0,0)"
     id="path127" />
  <path
     d=""
     fill="#F1B14A"
     transform="translate(0,0)"
     id="path128" />
  <path
     d=""
     fill="#F6B64C"
     transform="translate(0,0)"
     id="path129" />
  <path
     d=""
     fill="#F7B34D"
     transform="translate(0,0)"
     id="path130" />
  <path
     d=""
     fill="#F6B74D"
     transform="translate(0,0)"
     id="path131" />
  <path
     d=""
     fill="#F8B950"
     transform="translate(0,0)"
     id="path132" />
  <path
     d=""
     fill="#F6BA4E"
     transform="translate(0,0)"
     id="path133" />
  <path
     d=""
     fill="#F8BC4E"
     transform="translate(0,0)"
     id="path134" />
  <path
     d=""
     fill="#FABD50"
     transform="translate(0,0)"
     id="path135" />
  <path
     d=""
     fill="#FBC14F"
     transform="translate(0,0)"
     id="path136" />
  <path
     d=""
     fill="#FBBE50"
     transform="translate(0,0)"
     id="path137" />
  <path
     d=""
     fill="#FAC04F"
     transform="translate(0,0)"
     id="path138" />
  <path
     d=""
     fill="#FABE4F"
     transform="translate(0,0)"
     id="path139" />
  <path
     d=""
     fill="#FBC152"
     transform="translate(0,0)"
     id="path140" />
  <path
     d=""
     fill="#FBBD51"
     transform="translate(0,0)"
     id="path141" />
  <path
     d=""
     fill="#FBBE52"
     transform="translate(0,0)"
     id="path142" />
  <path
     d=""
     fill="#FFC251"
     transform="translate(0,0)"
     id="path143" />
  <path
     d=""
     fill="#FFC552"
     transform="translate(0,0)"
     id="path144" />
  <path
     d=""
     fill="#FDC150"
     transform="translate(0,0)"
     id="path145" />
  <path
     d=""
     fill="#FEC350"
     transform="translate(0,0)"
     id="path146" />
  <path
     d=""
     fill="#FFC555"
     transform="translate(0,0)"
     id="path147" />
  <path
     d=""
     fill="#FFC451"
     transform="translate(0,0)"
     id="path148" />
  <path
     d=""
     fill="#FEC453"
     transform="translate(0,0)"
     id="path149" />
  <path
     d=""
     fill="#FDBF50"
     transform="translate(0,0)"
     id="path150" />
  <path
     d=""
     fill="#FEC453"
     transform="translate(0,0)"
     id="path151" />
  <path
     d=""
     fill="#FBC150"
     transform="translate(0,0)"
     id="path152" />
  <path
     d=""
     fill="#F9BE52"
     transform="translate(0,0)"
     id="path153" />
  <path
     d=""
     fill="#F8BC51"
     transform="translate(0,0)"
     id="path154" />
  <path
     d=""
     fill="#F9BF50"
     transform="translate(0,0)"
     id="path155" />
  <path
     d=""
     fill="#F9BE51"
     transform="translate(0,0)"
     id="path156" />
  <path
     d=""
     fill="#FABE53"
     transform="translate(0,0)"
     id="path157" />
  <path
     d=""
     fill="#F7BC4F"
     transform="translate(0,0)"
     id="path158" />
  <path
     d=""
     fill="#F9BA51"
     transform="translate(0,0)"
     id="path159" />
  <path
     d=""
     fill="#F7BC51"
     transform="translate(0,0)"
     id="path160" />
  <path
     d=""
     fill="#F7BB4F"
     transform="translate(0,0)"
     id="path161" />
  <path
     d=""
     fill="#F9BC50"
     transform="translate(0,0)"
     id="path162" />
  <path
     d=""
     fill="#F2BA4D"
     transform="translate(0,0)"
     id="path163" />
  <path
     d=""
     fill="#F3B84D"
     transform="translate(0,0)"
     id="path164" />
  <path
     d=""
     fill="#F3B94C"
     transform="translate(0,0)"
     id="path165" />
  <path
     d=""
     fill="#F0B64C"
     transform="translate(0,0)"
     id="path166" />
  <path
     d=""
     fill="#F5BA4F"
     transform="translate(0,0)"
     id="path167" />
  <path
     d=""
     fill="#F1B64B"
     transform="translate(0,0)"
     id="path168" />
  <path
     d=""
     fill="#EEB549"
     transform="translate(0,0)"
     id="path169" />
  <path
     d=""
     fill="#F1B94C"
     transform="translate(0,0)"
     id="path170" />
  <path
     d=""
     fill="#EFB64B"
     transform="translate(0,0)"
     id="path171" />
  <path
     d=""
     fill="#F2B64E"
     transform="translate(0,0)"
     id="path172" />
  <path
     d=""
     fill="#F3BA4B"
     transform="translate(0,0)"
     id="path173" />
  <path
     d=""
     fill="#F2B94C"
     transform="translate(0,0)"
     id="path174" />
  <path
     d=""
     fill="#F0B74B"
     transform="translate(0,0)"
     id="path175" />
  <path
     d=""
     fill="#F1B74C"
     transform="translate(0,0)"
     id="path176" />
  <path
     d=""
     fill="#F1B94C"
     transform="translate(0,0)"
     id="path177" />
  <path
     d=""
     fill="#F2BA4D"
     transform="translate(0,0)"
     id="path178" />
  <path
     d=""
     fill="#F2B64D"
     transform="translate(0,0)"
     id="path179" />
  <path
     d=""
     fill="#EFB44B"
     transform="translate(0,0)"
     id="path180" />
  <path
     d=""
     fill="#F0B64B"
     transform="translate(0,0)"
     id="path181" />
  <path
     d=""
     fill="#F2B74C"
     transform="translate(0,0)"
     id="path182" />
  <path
     d=""
     fill="#F4B94E"
     transform="translate(0,0)"
     id="path183" />
  <path
     d=""
     fill="#291503"
     transform="translate(0,0)"
     id="path184" />
</svg>
