<?xml version="1.0" encoding="UTF-8" standalone="no"?>
<svg
   id="emoji"
   viewBox="0 0 48 48"
   version="1.1"
   sodipodi:docname="TILE_ROTATION.svg"
   width="48"
   height="48"
   inkscape:version="1.3.2 (091e20ef0f, 2023-11-25)"
   xmlns:inkscape="http://www.inkscape.org/namespaces/inkscape"
   xmlns:sodipodi="http://sodipodi.sourceforge.net/DTD/sodipodi-0.dtd"
   xmlns="http://www.w3.org/2000/svg"
   xmlns:svg="http://www.w3.org/2000/svg">
  <defs
     id="defs2" />
  <sodipodi:namedview
     id="namedview2"
     pagecolor="#ffffff"
     bordercolor="#000000"
     borderopacity="0.25"
     inkscape:showpageshadow="2"
     inkscape:pageopacity="0.0"
     inkscape:pagecheckerboard="0"
     inkscape:deskcolor="#d1d1d1"
     inkscape:zoom="6.9305556"
     inkscape:cx="24.096192"
     inkscape:cy="24.024048"
     inkscape:window-width="1366"
     inkscape:window-height="696"
     inkscape:window-x="0"
     inkscape:window-y="40"
     inkscape:window-maximized="1"
     inkscape:current-layer="emoji" />
  <g
     id="color"
     transform="translate(-12,-12)">
    <path
       fill="#b399c8"
       d="m 59.0349,60 h -46.07 A 0.9679,0.9679 0 0 1 12,59.0349 v -46.07 A 0.9679,0.9679 0 0 1 12.9651,12 h 46.07 A 0.9679,0.9679 0 0 1 60,12.9651 v 46.07 A 0.9679,0.9679 0 0 1 59.0349,60 Z"
       id="path1" />
  </g>
  <g
     id="line"
     transform="translate(-12,-12)">
    <path
       fill="none"
       stroke="#000000"
       stroke-linejoin="round"
       stroke-width="2"
       d="m 59.0349,60 h -46.07 A 0.9679,0.9679 0 0 1 12,59.0349 v -46.07 A 0.9679,0.9679 0 0 1 12.9651,12 h 46.07 A 0.9679,0.9679 0 0 1 60,12.9651 v 46.07 A 0.9679,0.9679 0 0 1 59.0349,60 Z"
       id="path2" />
  </g>
</svg>
