<?xml version="1.0" encoding="UTF-8" standalone="no"?>
<svg
   width="84"
   height="84"
   viewBox="0 0 168 168"
   version="1.1"
   id="svg4"
   sodipodi:docname="corners-out-thin.svg"
   inkscape:version="1.1.2 (0a00cf5339, 2022-02-04)"
   xmlns:inkscape="http://www.inkscape.org/namespaces/inkscape"
   xmlns:sodipodi="http://sodipodi.sourceforge.net/DTD/sodipodi-0.dtd"
   xmlns="http://www.w3.org/2000/svg"
   xmlns:svg="http://www.w3.org/2000/svg">
  <defs
     id="defs8" />
  <sodipodi:namedview
     id="namedview6"
     pagecolor="#ffffff"
     bordercolor="#666666"
     borderopacity="1.0"
     inkscape:pageshadow="2"
     inkscape:pageopacity="0.0"
     inkscape:pagecheckerboard="0"
     showgrid="false"
     inkscape:zoom="4.046875"
     inkscape:cx="42.007722"
     inkscape:cy="42.007722"
     inkscape:window-width="1366"
     inkscape:window-height="696"
     inkscape:window-x="0"
     inkscape:window-y="40"
     inkscape:window-maximized="1"
     inkscape:current-layer="svg4" />
  <path
     fill="#ffffff"
     d="m 168,4 v 40 a 4,4 0 0 1 -8,0 V 8 h -36 a 4,4 0 0 1 0,-8 h 40 a 4,4 0 0 1 4,4 z M 44,160 H 8 v -36 a 4,4 0 0 0 -8,0 v 40 a 4,4 0 0 0 4,4 h 40 a 4,4 0 0 0 0,-8 z m 120,-40 a 4,4 0 0 0 -4,4 v 36 h -36 a 4,4 0 0 0 0,8 h 40 a 4,4 0 0 0 4,-4 v -40 a 4,4 0 0 0 -4,-4 z M 44,0 H 4 A 4,4 0 0 0 0,4 v 40 a 4,4 0 0 0 8,0 V 8 h 36 a 4,4 0 0 0 0,-8 z"
     id="path2" />
</svg>
