<?xml version="1.0" encoding="iso-8859-1"?>
<!-- Uploaded to: SVG Repo, www.svgrepo.com, Generator: SVG Repo Mixer Tools -->
<svg height="800px" width="800px" version="1.1" id="Layer_1" xmlns="http://www.w3.org/2000/svg" xmlns:xlink="http://www.w3.org/1999/xlink" 
	 viewBox="0 0 512 512" xml:space="preserve">
<path style="fill:#7DF5A5;" d="M358.5,34.834c-40.011,0-76.235,16.124-102.5,42.194c-26.264-26.07-62.487-42.194-102.5-42.194
	c-80.195,0-145.207,64.743-145.207,144.608c0,110.583,130.261,243.496,247.706,297.724
	c117.445-54.228,247.706-187.14,247.706-297.724C503.706,99.577,438.694,34.834,358.5,34.834z"/>
<path style="fill:#64DCA0;" d="M166.354,161.749c0-46.794,17.847-88.275,45.408-114.707c-17.844-7.803-37.523-12.208-58.26-12.208
	c-80.197,0-145.208,64.743-145.208,144.608c0,110.584,130.261,243.496,247.706,297.724c23.796-10.989,48.082-25.328,71.741-41.936
	C245.432,371.87,166.354,258.308,166.354,161.749z"/>
<path style="fill:#FFDC64;" d="M331.849,149.84c-29.609,0-56.414,11.932-75.849,31.223c-19.435-19.291-46.24-31.223-75.849-31.223
	c-59.344,0-107.454,47.91-107.454,107.01c0,81.832,96.393,180.187,183.303,220.316c86.91-40.128,183.303-138.483,183.303-220.316
	C439.303,197.75,391.195,149.84,331.849,149.84z"/>
<path style="fill:#FFC850;" d="M189.662,243.757c0-34.628,13.207-65.324,33.602-84.883c-13.205-5.774-27.767-9.035-43.112-9.035
	c-59.346,0-107.454,47.91-107.454,107.01c0,81.833,96.393,180.187,183.303,220.316c17.609-8.131,35.58-18.743,53.089-31.033
	C248.18,399.247,189.662,315.211,189.662,243.757z"/>
<path style="fill:#FF507D;" d="M305.2,264.847c-19.206,0-36.593,7.74-49.2,20.253c-12.606-12.514-29.993-20.253-49.2-20.253
	c-38.494,0-69.699,31.077-69.699,69.412c0,53.08,62.526,116.879,118.899,142.908c56.373-26.029,118.899-89.828,118.899-142.908
	C374.899,295.924,343.694,264.847,305.2,264.847z"/>
<path style="fill:#D23C69;" d="M212.97,325.766c0-22.462,8.567-42.372,21.796-55.059c-8.565-3.745-18.011-5.86-27.965-5.86
	c-38.494,0-69.699,31.077-69.699,69.412c0,53.08,62.526,116.879,118.899,142.908c11.422-5.275,23.08-12.158,34.436-20.129
	C250.926,426.624,212.97,372.115,212.97,325.766z"/>
<path d="M358.498,26.54c-38.199,0-74.29,13.823-102.498,39.091C227.791,40.363,191.7,26.54,153.502,26.54
	C68.86,26.54,0,95.131,0,179.442c0,52.998,29.076,115.314,81.871,175.467c46.711,53.22,107.137,99.578,166.417,127.791
	c1.412,0.679,2.824,1.345,4.235,1.996c1.104,0.509,2.29,0.764,3.477,0.764c1.187,0,2.373-0.254,3.477-0.764
	c1.411-0.651,2.822-1.317,4.235-1.996c59.28-28.213,119.705-74.571,166.417-127.791C482.924,294.756,512,232.44,512,179.442
	C512,95.131,443.14,26.54,358.498,26.54z M256,467.985c-53.032-25.901-110.605-86.031-110.605-133.726
	c0-33.701,27.546-61.118,61.406-61.118c16.365,0,31.763,6.338,43.357,17.846c3.235,3.21,8.452,3.21,11.685,0
	c11.594-11.508,26.991-17.846,43.356-17.846c33.859,0,61.406,27.417,61.406,61.118C366.605,381.952,309.032,442.083,256,467.985z
	 M374.009,377.176c-1.101,1.255-2.216,2.505-3.339,3.749c8.196-16.262,12.522-32.132,12.522-46.666
	c0-42.848-34.987-77.706-77.993-77.706c-18.131,0-35.329,6.131-49.2,17.408c-13.87-11.277-31.068-17.408-49.2-17.408
	c-43.006,0-77.993,34.858-77.993,77.706c0,14.534,4.326,30.403,12.522,46.666c-1.122-1.244-2.236-2.494-3.339-3.749
	c-36.757-41.879-57-84.612-57-120.326c0-54.432,44.483-98.716,99.159-98.716c26.424,0,51.285,10.233,70.007,28.816
	c3.235,3.21,8.452,3.21,11.685,0c18.722-18.582,43.583-28.816,70.007-28.816c54.677,0,99.159,44.284,99.159,98.716
	C431.009,292.564,410.766,335.297,374.009,377.176z M422.609,338.234c16.315-28.429,24.987-56.278,24.987-81.384
	c0-63.579-51.924-115.304-115.747-115.304c-28.157,0-54.797,9.962-75.849,28.21c-21.052-18.247-47.692-28.21-75.849-28.21
	c-63.823,0-115.747,51.725-115.747,115.304c0,25.106,8.671,52.956,24.987,81.384c-47.002-55.288-72.804-111.458-72.804-158.792
	c0-75.164,61.419-136.315,136.914-136.315c36.481,0,70.809,14.129,96.656,39.787c3.235,3.21,8.452,3.21,11.685,0
	c25.848-25.658,60.174-39.787,96.655-39.787c75.495,0,136.914,61.15,136.914,136.315
	C495.413,226.776,469.611,282.946,422.609,338.234z"/>
<path d="M381.451,64.155c-7.514-1.478-15.236-2.228-22.953-2.228c-4.58,0-8.294,3.713-8.294,8.294s3.713,8.294,8.294,8.294
	c6.643,0,13.289,0.645,19.75,1.915c0.541,0.106,1.079,0.158,1.61,0.158c3.883,0,7.35-2.741,8.129-6.695
	C388.872,69.399,385.945,65.038,381.451,64.155z"/>
<path d="M460.871,120.867c-9.979-17.201-24.283-31.733-41.367-42.024c-3.927-2.364-9.021-1.098-11.383,2.824
	c-2.363,3.923-1.099,9.02,2.824,11.383c30.733,18.514,49.081,50.809,49.081,86.391c0,4.58,3.713,8.294,8.294,8.294
	s8.294-3.713,8.294-8.294C476.613,158.876,471.169,138.622,460.871,120.867z"/>
<path d="M411.475,246.03c-5.388-39.392-39.62-69.097-79.627-69.097c-4.58,0-8.294,3.713-8.294,8.294s3.713,8.294,8.294,8.294
	c31.755,0,58.922,23.541,63.192,54.757c0.568,4.157,4.125,7.171,8.206,7.171c0.374,0,0.753-0.025,1.133-0.077
	C408.92,254.75,412.096,250.568,411.475,246.03z"/>
<path d="M305.2,291.94c-5.965,0-11.727,1.197-17.13,3.554c-4.198,1.832-6.115,6.721-4.283,10.919
	c1.832,4.198,6.721,6.117,10.919,4.283c3.296-1.439,6.828-2.169,10.494-2.169c14.347,0,26.019,11.543,26.019,25.732
	c0,4.58,3.713,8.294,8.294,8.294s8.294-3.713,8.294-8.294C347.806,310.923,328.693,291.94,305.2,291.94z"/>
</svg>